<svg version="1.1" xmlns="http://www.w3.org/2000/svg" viewBox="0 0 310.8202481412902 296.51198281505094" width="310.8202481412902" height="296.51198281505094">
  <!-- svg-source:excalidraw -->
  
  <defs>
    <style>
      @font-face {
        font-family: "Virgil";
        src: url("https://excalidraw.com/Virgil.woff2");
      }
      @font-face {
        font-family: "Cascadia";
        src: url("https://excalidraw.com/Cascadia.woff2");
      }
    </style>
  </defs>
  <rect x="0" y="0" width="310.8202481412902" height="296.51198281505094" fill="#ffffff"></rect><g stroke-linecap="round"><g transform="translate(180.54369314548876 158.7222340474027) rotate(0 -38.15518558277893 -17.611055323823848)" fill-rule="evenodd"><path d="M-88.33 -70.15 C-88.33 -70.15, -88.33 -70.15, -88.33 -70.15 M-88.33 -70.15 C-88.33 -70.15, -88.33 -70.15, -88.33 -70.15 M-98.5 -53.27 C-90.22 -63.12, -84.88 -69.65, -74.06 -80.13 M-97.61 -53.79 C-92.86 -60.36, -88.27 -64.72, -74.62 -80.22 M-106.95 -36.23 C-97.4 -47.9, -85.78 -61.47, -60.62 -88.19 M-106.1 -36.46 C-92.42 -54.25, -76.71 -72.27, -62.25 -88.08 M-108.84 -28.8 C-90.84 -49.95, -76.11 -66.98, -51.9 -92.34 M-109.58 -27.07 C-96.64 -43.49, -82.48 -58.67, -51.5 -92.27 M-114.51 -19.31 C-88.98 -45.36, -65.06 -73.7, -44.69 -96.38 M-113.18 -17.62 C-98.48 -34.08, -84.73 -49.69, -43.38 -96.67 M-114.69 -11.65 C-92.05 -32.33, -73.1 -59.17, -34.74 -101.41 M-113.6 -10.53 C-90.91 -36.78, -67.44 -63.37, -35 -102.38 M-114.76 -3.5 C-79.08 -41.8, -46.63 -81.6, -25.81 -103.26 M-113.85 -3.47 C-96.79 -24.12, -78.61 -43.65, -27.07 -103.73 M-112.51 4.46 C-79.54 -38.91, -46.12 -79.64, -19.44 -105.11 M-113.43 2.88 C-94.73 -18.62, -74.81 -41.46, -20.1 -105.51 M-112.44 9.7 C-82.67 -26.96, -52.21 -65.17, -15.33 -107.13 M-113.09 7.43 C-79.51 -33.28, -41.82 -74.03, -15.21 -107.08 M-114.89 14.49 C-82.76 -16.37, -53.99 -51.46, -6.98 -108.32 M-114.34 14.72 C-86.7 -17.59, -57.56 -49.6, -8.24 -106.87 M-115.03 18.71 C-71.09 -27.29, -27.98 -78.68, -2.14 -108.65 M-112.96 19.26 C-86.89 -11.39, -59.12 -44.54, -2.58 -109.04 M-114.59 26.04 C-89.44 -1.62, -65.42 -32.46, 4.89 -110.2 M-113.09 25.06 C-70.95 -24.31, -30.24 -71.74, 4.03 -109.15 M-113.53 29.59 C-62.97 -22.83, -15.11 -78.87, 10.16 -108.26 M-111.4 30.73 C-70.52 -16.19, -28.23 -64.99, 8.01 -107.87 M-109.78 37.45 C-80.27 -1.54, -48.32 -38.36, 15.05 -108.72 M-111.21 36.52 C-85.11 3.01, -57.68 -28.5, 14.43 -108.95 M-109.64 40.89 C-76.21 3.62, -46.84 -33.75, 17.87 -109.21 M-109.38 39.85 C-75.54 0.4, -42.17 -37.63, 18.27 -108.82 M-109.54 46.73 C-70.21 -2.6, -27.39 -50.98, 22.98 -106.35 M-110.36 47.19 C-57.01 -15.03, -4.51 -75.6, 24.75 -108.32 M-107.42 49.97 C-59.08 -8.14, -4.45 -69.59, 27.95 -108.43 M-108.43 50.25 C-60.89 -2.73, -14.17 -58.24, 29.09 -107.15 M-106.75 56.41 C-64.78 6.99, -21.8 -41.42, 35.43 -107.37 M-107.64 55.84 C-70.06 11.98, -33.79 -31.42, 34.65 -107.25 M-106.81 59.38 C-55.94 2.42, -5.44 -54.1, 36.23 -103.37 M-106.86 59.71 C-67.97 15.23, -29.25 -29.12, 37.37 -103.96 M-105.6 62.63 C-54.73 3.72, -3.47 -53.45, 40.07 -103.01 M-104.83 63.85 C-66.29 21.76, -29.93 -19.41, 40.56 -102.42 M-103.82 68.02 C-68.57 30.39, -36.12 -7.22, 40.98 -98.99 M-102.76 67.27 C-69.61 29.41, -36.23 -9.22, 42.55 -97.68 M-100.15 69.57 C-63.32 30.77, -32.55 -7.32, 40.98 -89.5 M-98.31 69.88 C-45.65 8.76, 7.9 -52.55, 40.84 -91.13 M-95.7 73.54 C-68.6 40.07, -38.81 10.19, 39.75 -84.26 M-97.44 73.04 C-45.6 18.08, 3.3 -39.87, 40.52 -83 M-92.17 72.75 C-48.13 23.08, -4.94 -26.1, 35.04 -73.32 M-91.66 74.46 C-50.46 25.37, -7.97 -21.13, 35.12 -73.22 M-86.38 73.3 C-60.91 42.89, -35.29 15.8, 28.78 -60.92 M-84.97 72.25 C-50.01 31.19, -14.32 -9.27, 29.97 -58.63 M-80.9 73.39 C-55.33 42.36, -24.97 8.86, 21.65 -47.77 M-80.19 72.2 C-40.99 26.38, -2.51 -18.19, 23.69 -46.84 M-70.84 64.55 C-42.26 37.73, -18.09 7.61, 18.13 -32.9 M-68.85 66.78 C-46.48 40.08, -22.4 14.82, 16.28 -33.71 M-41.12 41.59 C-28.05 27.13, -16.52 13.92, 12.16 -17.7 M-43.15 42.47 C-29.67 24.84, -14.9 8.3, 10.36 -19.79 M-16.62 17.37 C-12.81 12.1, -6.3 6.08, 6.66 -7.51 M-16.51 16.02 C-8.37 8.03, -2.1 1.16, 4.42 -6.47 M-98.3 71.93 C-98.3 71.93, -98.3 71.93, -98.3 71.93 M-98.3 71.93 C-98.3 71.93, -98.3 71.93, -98.3 71.93 M-92.11 71.46 C-92.82 70.87, -97.33 68.58, -102.12 62.85 M-90.88 73.14 C-94.28 69.04, -98.09 66, -101.63 63.29 M-86 72.44 C-92.73 67.16, -99.34 58.48, -105.19 55.92 M-86.13 72.4 C-92.98 65.57, -101.35 59.77, -106.03 55.4 M-81.15 70.74 C-90.02 63.6, -92.58 59.15, -110.48 45.33 M-82.61 69.31 C-91.08 63.51, -100.24 55.69, -110.16 45.85 M-77.27 68.4 C-87 61.5, -95.23 51.83, -110.38 37.75 M-78.99 66.97 C-91.22 57.05, -104.47 44.96, -111.27 38.56 M-74.79 65.64 C-83.42 57.95, -94.39 51.79, -111.39 34.56 M-75.04 64.71 C-85.71 57.05, -96.53 46.6, -112.78 33.77 M-72.32 61.96 C-85.71 52.49, -101.89 36.7, -113.8 25.12 M-71.05 63.37 C-88.31 50.27, -103.53 34.94, -114.2 26.83 M-69.32 60.53 C-85.72 48.58, -102.91 34.15, -115.15 22.43 M-66.97 61.16 C-81.32 48.74, -96.23 36.51, -112.95 21.39 M-66.74 57.88 C-82.89 44.93, -98.89 28.11, -112.8 15.6 M-65.38 58.75 C-78.17 45.64, -91 33.81, -113.45 15.24 M-63.32 54.22 C-82.42 40.23, -99.62 20.39, -113.32 10.82 M-62.38 55.06 C-78.69 41.84, -96.19 26.4, -114.9 10.76 M-59.81 52.61 C-73.06 43.14, -85.21 30.32, -112.64 6.49 M-58.09 53.84 C-76.59 37.64, -93.38 22.38, -113.89 5.42 M-57.04 51.23 C-77.27 34.84, -96.99 15.06, -115.13 0.12 M-55.27 51.39 C-70.35 38.89, -82.28 26.77, -113.91 0.23 M-54.04 47.77 C-76.13 28.38, -95.23 9.67, -115.26 -5.81 M-51.83 48.38 C-66.38 35.41, -81.76 22.67, -113.44 -5.08 M-48.93 45.86 C-68.55 28.98, -92.64 10.33, -114.98 -10.91 M-48.17 45.72 C-62.99 34.03, -76.84 21.67, -113.77 -9.59 M-45.07 43.4 C-71.65 23.68, -94.07 1.51, -112.05 -14.46 M-45.76 42.34 C-70.93 21.73, -96.81 0.09, -111.78 -13.41 M-41.12 40.91 C-58.74 27.15, -76.89 13.01, -111.49 -19.7 M-43.65 40.96 C-59.53 27.57, -75.02 12.86, -111.8 -18.48 M-40.76 39.3 C-56.76 23.2, -72.38 7.3, -111.84 -22.18 M-40.6 37.33 C-63.37 18.05, -85.89 -2.55, -110.38 -23.47 M-39.7 34.88 C-60.21 14.95, -86.71 -6.73, -109.93 -26.61 M-38.56 34.6 C-61.83 13.91, -83.8 -7.68, -109.38 -27.26 M-36.41 31.71 C-53.08 17.6, -68.44 0.07, -109.64 -29.92 M-33.82 31.23 C-55.22 12.85, -77.35 -4.81, -107.26 -32.51 M-30.67 30.06 C-48.23 15.89, -65.83 1.28, -106.07 -34.17 M-32.02 28.74 C-55.55 7.22, -80.73 -13.35, -105.65 -35.12 M-26.74 25.33 C-49.46 8.72, -67.93 -7.5, -104.4 -38.86 M-27.71 26.2 C-51.29 7.24, -73.28 -11.46, -104.68 -39.18 M-27.72 25.2 C-56.16 -0.96, -86.42 -25.15, -102.54 -44.54 M-25.19 22.77 C-49.99 3.26, -72.91 -19.11, -102.03 -43.02 M-21.92 21.26 C-51.67 -4.58, -79.35 -29.55, -101.24 -48.42 M-23.3 20.71 C-37.36 6.18, -52.78 -7.17, -101.48 -47.52 M-21.24 18.12 C-39.74 0.36, -57.79 -14.47, -97.21 -50.72 M-20.25 18.02 C-49.47 -6.57, -76.54 -30.78, -98.48 -50.91 M-16.31 16.41 C-39 -4.06, -61.21 -21.18, -96.25 -56.89 M-17.18 14.81 C-40.72 -5.73, -64.93 -27, -97.74 -55.61 M-15.07 13.12 C-44.41 -12.06, -75.03 -39.77, -94.63 -60.63 M-13.19 13.13 C-32.57 -3.22, -53.04 -20.36, -96.99 -57.81 M-9.44 10.08 C-36.66 -11.46, -60.53 -33.71, -95.19 -60.82 M-10.46 10.84 C-34.88 -10.8, -58.69 -32.61, -93.59 -60.94 M-6.44 8.89 C-25.89 -6.31, -39.02 -21.21, -91.76 -67.12 M-7.75 7.99 C-28.32 -10.93, -48.81 -30.2, -91.32 -65.84 M-6.55 4.06 C-24.67 -12.98, -43.43 -29.19, -89 -69.64 M-5.28 5.42 C-34.03 -20.92, -63.03 -44, -88.69 -69.03 M-2.08 2.6 C-31.71 -22.03, -61.55 -49.37, -88.79 -73.88 M-1.47 1.78 C-22.58 -14.27, -43.1 -31.91, -87.77 -72.12 M0.44 -2.79 C-18.7 -16.99, -39.77 -35.45, -83.82 -76.35 M0.19 -1.87 C-19.02 -17.26, -37.43 -32.4, -84.23 -74.12 M4.39 -3.47 C-25.38 -29.69, -56.97 -56.23, -82.29 -77.53 M2.83 -4.34 C-27.28 -31.45, -58.13 -58.2, -80.42 -76.84 M5.92 -9.12 C-22.82 -29.83, -46.93 -51.39, -76.72 -80.83 M4.71 -9.14 C-22.58 -30.96, -48.85 -53.73, -78.68 -80.51 M8.13 -10.66 C-27.82 -39.51, -57.61 -69.9, -76.09 -81.55 M6.81 -11.98 C-18.12 -32.62, -44.65 -53.51, -75.89 -83.23 M8.61 -17.89 C-11.85 -35.89, -36.65 -55.42, -72.72 -87.2 M8.08 -16.95 C-13.8 -35.1, -35.42 -53.05, -72.79 -85.89 M10.15 -18.49 C-12.51 -40.29, -33.14 -59.21, -68.9 -89.05 M9.59 -20.11 C-12.39 -39.91, -35.18 -58.74, -69.06 -88.27 M11.79 -23.59 C-19.09 -49.05, -47.96 -71.73, -67.01 -89.82 M11.27 -23.57 C-13.72 -45.58, -40.56 -68.75, -65.85 -91.32 M11.49 -26.75 C-5.89 -44.78, -24.49 -61.49, -62.64 -93.96 M14.02 -27.1 C-5.64 -44.07, -26.19 -61.95, -61.37 -91.95 M13.02 -30.26 C-6.68 -49.32, -24.49 -64.4, -56.22 -96.6 M14.23 -30.95 C-13.18 -54.78, -43.23 -81.53, -58.92 -94.59 M17.53 -34.76 C-8.28 -56.73, -30.99 -76.88, -55.65 -95.16 M16.91 -34.04 C-4.71 -52.79, -24.78 -70.36, -54 -95.35 M18.46 -37.5 C1.89 -56.3, -17.39 -69.04, -50.43 -97.01 M18.13 -38.78 C-6.96 -60.78, -32.85 -81.8, -50.85 -98.21 M20.18 -43.39 C5.16 -56.79, -10.9 -68.9, -44.75 -101.72 M19.27 -42.7 C6.95 -54.18, -7.13 -64.51, -45.97 -99.9 M21.07 -46.51 C4.74 -61.8, -10.05 -74.93, -42.66 -103.39 M21.62 -46.48 C-3.25 -68.02, -28.9 -90.73, -41.76 -102.71 M24.19 -49.12 C9.32 -64.01, -4.05 -74.13, -37.41 -105.62 M22.62 -49.61 C5.7 -67.29, -13.07 -82.56, -38.28 -104.09 M24.12 -51.99 C2.27 -73.16, -18.99 -88.57, -32.35 -107.05 M26.29 -53.17 C11.34 -65.82, -3.63 -78.19, -34.58 -104.73 M26.61 -55.96 C11.3 -68.18, -2.56 -83.24, -30.29 -108.41 M26.42 -58.02 C12.02 -69.47, -1.85 -82.48, -30.49 -108.16 M28.19 -59.6 C12.37 -79.09, -6.55 -96.12, -25.88 -110.13 M29.73 -61.02 C13.21 -73.93, -2.99 -89.99, -25.47 -108.92 M31.05 -65.48 C17.91 -75.61, 10.25 -82.67, -20.99 -108.55 M30.35 -65.85 C17.63 -75.66, 5.18 -86.63, -20.41 -109.38 M33.67 -67.17 C12.17 -87.47, -7.6 -103.29, -15.83 -113.01 M31.98 -68.58 C22.36 -78.11, 11.83 -86.83, -15.17 -111.33 M33.19 -71.48 C21.35 -83.38, 9.15 -94.74, -9.81 -111.38 M33.82 -72.46 C15.55 -88.8, -1.67 -104.04, -9.91 -112.09 M35.03 -78.8 C21.58 -88.95, 11.9 -99.07, -5.96 -111.68 M35.79 -76.82 C27.14 -85.01, 17.84 -91.84, -5.93 -112.73 M34.51 -82.01 C29.51 -90.19, 18.23 -96.82, 2.78 -110.47 M35.69 -80.56 C23.84 -92.25, 12.84 -102.95, 1.61 -110.99 M37.77 -87.47 C30.66 -93.87, 22.46 -99.23, 7.31 -111.01 M37.65 -85.72 C31.11 -91.4, 24.39 -95.8, 9 -109.99 M38.32 -91.32 C29.19 -96.55, 24.05 -105.58, 16.86 -110.95 M38.31 -90.27 C31.78 -95.55, 25.98 -101.57, 16 -110.51 M40.74 -93.06 C32.5 -102.17, 25.6 -106.49, 23.31 -111.35 M38.01 -94.34 C34.84 -98.5, 28.68 -103.74, 21.76 -108.56 M39.42 -98.77 C35.95 -101.6, 32.13 -104.43, 27.84 -110.42 M39.24 -99.65 C36.63 -101.76, 34.45 -104.67, 28.74 -109.88" stroke="#15aabf" stroke-width="0.5" fill="none"></path><path d="M-0.28 -0.48 C-15.58 12.01, -72.35 73.58, -91.67 73.97 C-110.98 74.36, -116.66 26.07, -116.15 1.86 C-115.65 -22.34, -101.85 -53.5, -88.64 -71.24 C-75.42 -88.99, -53.76 -98.21, -36.87 -104.6 C-19.98 -110.98, -0.22 -111.35, 12.71 -109.55 C25.65 -107.76, 42.76 -111.92, 40.75 -93.82 C38.74 -75.71, 7.57 -16.54, 0.64 -0.9 M1.77 -1.77 C-13.68 11.02, -72.67 75.34, -92.49 75.59 C-112.3 75.84, -117.76 24.12, -117.11 -0.26 C-116.46 -24.64, -102.25 -53.27, -88.57 -70.69 C-74.89 -88.11, -51.58 -98.24, -35.04 -104.79 C-18.5 -111.33, -1.53 -111.61, 10.68 -109.98 C22.89 -108.35, 40.02 -113.07, 38.23 -95.02 C36.44 -76.98, 6.2 -17.32, -0.05 -1.72" stroke="#343a40" stroke-width="1" fill="none"></path></g></g><g stroke-linecap="round"><g transform="translate(178.8515924361941 160.99127077505818) rotate(0 60.53343996201545 -30.626554263831395)" fill-rule="evenodd"><path d="M49.59 -98.67 C49.59 -98.67, 49.59 -98.67, 49.59 -98.67 M49.59 -98.67 C49.59 -98.67, 49.59 -98.67, 49.59 -98.67 M42.79 -83.77 C45.11 -90.08, 50.69 -93.06, 54.71 -100.65 M42.27 -84.6 C45.42 -89.59, 50.84 -93.18, 54.62 -99.66 M36.04 -71.27 C47 -81.98, 55.93 -92.27, 61.74 -98.79 M35.82 -70.53 C45.07 -81.35, 54.25 -93.72, 61.86 -99.33 M18.61 -45.6 C32.7 -65.77, 50.85 -79.95, 64.78 -97.98 M20.34 -47.64 C32.43 -61.92, 45.71 -74.81, 64.85 -96.34 M13.82 -35.61 C31.17 -53.43, 46.28 -71.88, 67.93 -96.18 M15.51 -35.44 C26.81 -48.92, 38.9 -61.82, 67.64 -94.53 M8.82 -21.79 C33.75 -48.31, 52.63 -71.8, 70.09 -91.75 M9.95 -23.59 C24.84 -40.15, 39.4 -56.95, 69.12 -90.65 M4.32 -9.95 C21.86 -30.59, 37.9 -46.36, 73.92 -90.92 M4.35 -10.02 C25.79 -35.12, 48.29 -61.01, 73.44 -88.18 M2.43 0.52 C26.6 -33.06, 53.44 -60.82, 76.23 -88.13 M0.85 0.35 C24.05 -25.59, 45.96 -50.53, 75.84 -86.16 M5.71 3 C34.12 -31.67, 60.91 -65.08, 78.38 -82.4 M3.43 1.53 C34.28 -32.12, 65.18 -67.69, 78.43 -83.98 M8.42 5.1 C26.49 -12.92, 40.37 -30.97, 80.61 -81.73 M8.66 3.5 C35.39 -26.14, 62.45 -57.16, 82.05 -80.2 M10.68 5.67 C41.05 -24.81, 66.16 -55.44, 84.44 -79.45 M11.23 4.77 C37.01 -23.96, 60.24 -51.3, 84.06 -79.39 M17.46 6.23 C42.49 -21.8, 64.25 -48.9, 87.06 -74.6 M16.47 7.37 C44.44 -26.88, 74.21 -59.02, 88.11 -74.89 M19.78 8.58 C38.66 -9.93, 54.25 -28.41, 91 -71.56 M20.93 8.03 C43.13 -16.42, 63.81 -42.55, 91.39 -72.91 M25.68 9.16 C43.1 -14.51, 63.13 -35.45, 93.2 -71.45 M24.74 10.11 C49.59 -20.36, 76.02 -50.01, 92.98 -70.35 M28.56 12.98 C47.14 -11.65, 65.53 -33.28, 94.72 -67.19 M27.52 11.04 C43 -8.11, 59.62 -25.73, 95.1 -66.33 M31.65 11.44 C51.63 -11.65, 72.11 -35.28, 99.09 -60.45 M32.17 13.79 C50.17 -8.93, 69.7 -30.15, 96.89 -61.51 M34.96 12.73 C62.2 -14.16, 86 -44.85, 98.71 -57.98 M35.29 14.75 C58.2 -11.14, 78.8 -34, 100.16 -58.95 M40.4 15.44 C53.07 0.57, 66.65 -12.69, 101.86 -56.22 M39.76 16.98 C61.45 -10.48, 83.77 -34.09, 101.99 -55.09 M43.4 18.2 C62.87 -2.63, 82.69 -27.36, 105.8 -52.74 M43.78 17.33 C65.42 -7.19, 87.42 -31.2, 105.12 -51.64 M46.05 17.32 C65.22 -3.6, 85.88 -23.28, 106.43 -49.8 M47.46 19.7 C59.68 6.04, 72.52 -8.59, 107.11 -49.58 M52.05 21.12 C63.56 7.69, 75.33 -8.55, 108.66 -46.75 M51.19 20.91 C74.09 -4.67, 96.58 -29.41, 110.17 -46.01 M55.15 23.84 C70.38 3.86, 85.92 -11.14, 112.83 -40.41 M55.51 22.2 C72.49 2.52, 89.46 -17.02, 110.98 -42.98 M59.5 23.5 C73.24 7.46, 91.37 -11.32, 113.03 -37.45 M58.94 24.61 C72.16 11.43, 82.23 -1.13, 114.45 -38.24 M62.69 24.29 C76.64 8.68, 90.95 -5.76, 115.52 -34.73 M64.4 24.95 C80.33 5.93, 99.02 -14.82, 115.62 -36.1 M68.82 26.17 C83.65 7.93, 102.07 -11.82, 117.09 -31.72 M67.77 27 C85.47 6.86, 103.57 -13.51, 119.38 -32.25 M71.47 27.28 C91.02 8.75, 107.89 -15.4, 118.1 -25.34 M70.28 29.39 C88.83 6.67, 108.55 -13.34, 119.03 -27.01 M74.14 29.78 C86.54 17.48, 95.79 9.37, 121.49 -23.62 M76.37 29.12 C86.55 17.84, 98.38 3.71, 120.68 -23.5 M78.65 33.75 C91.49 17.65, 105.6 3.9, 123.9 -17.79 M79.54 30.92 C95.39 12.01, 112.35 -6.83, 121.8 -18.08 M84.07 31.54 C99.36 16.04, 113.89 -0.53, 121.28 -10.92 M82.71 33.23 C91.77 22.17, 102.19 11.17, 122.33 -11.5 M88.54 32.67 C98.77 20.03, 113.06 4.46, 122.69 -5.06 M87.51 34.65 C97.71 22.72, 109.16 9.35, 121.81 -6.43 M89.62 37.21 C98.7 27.74, 104.88 21.44, 120.63 2.43 M92.02 36.83 C98.38 28.26, 106.16 18.97, 121.25 1.72 M96.59 37.12 C103.73 29.99, 107.06 22.63, 122.05 9.19 M96.54 37.44 C103.43 27.96, 111.03 19.59, 121.53 6.74 M100.92 36.39 C106.61 31.24, 114.78 20.61, 120.78 14.29 M99.49 37.85 C106.08 31.7, 111.02 26.37, 121.3 13.58 M105.93 38.93 C113.66 30.6, 118.58 22.43, 121.86 19.06 M104.5 38.58 C111.71 31.07, 116.37 24.91, 122.67 16.71 M110.5 39.16 C112.6 34.26, 116.3 34.08, 123.27 25.09 M109.65 39.4 C115.13 34.26, 118.47 28.4, 122.55 25.68 M0 0 C0 0, 0 0, 0 0 M0 0 C0 0, 0 0, 0 0 M10.47 3.61 C8.54 0.43, 5.36 -2.23, 2.56 -3.54 M10.84 4.64 C8.59 2.24, 6.28 0.6, 1.94 -3.39 M22.21 8.06 C19.93 5.41, 13.85 3.29, 2.95 -8.52 M23.08 9.38 C16.85 5.65, 11.73 1.18, 2.59 -7.3 M31.84 11.59 C28.77 8.1, 19.51 2.89, 5.03 -11.07 M32.68 13.7 C25.01 5.44, 15.53 -3.54, 4.97 -12.42 M43.52 15.73 C32.24 4.49, 17.2 -4.05, 8.21 -15.07 M44.75 16.58 C34.75 9.7, 25.78 2.45, 7.14 -14.81 M56.84 21.17 C46.71 12.22, 33.85 1.71, 8.7 -20.43 M57 21.65 C37.47 7.01, 18.17 -10.05, 8.81 -18.42 M66.67 25.03 C47.54 11.77, 29.85 -7.24, 8.87 -24.67 M67.28 26.72 C51.79 13.03, 36.54 1.02, 9.6 -23.04 M78.05 32.44 C61.7 13.82, 43.27 -2.86, 10.63 -28.69 M77.91 30.9 C57 12.75, 35.07 -6.94, 11.95 -26.47 M81.23 26.34 C57.32 6.03, 30.45 -15.34, 13.27 -29.05 M80.17 27.93 C65.61 14.54, 50.72 2.25, 14.32 -31.29 M90.51 31.25 C71.54 14.22, 53.17 -0.91, 14.89 -35.78 M90.57 29.6 C71.79 13.64, 52.58 -1.62, 16.12 -35.02 M103.61 35.58 C76.11 13.49, 48.29 -12.19, 17.2 -38 M101.64 35.52 C80.91 17.6, 59.18 -2.36, 15.91 -38.27 M111.62 40.26 C86.87 14.5, 60.15 -9.4, 18.97 -41.73 M111.35 37.38 C92.88 21.83, 72.79 3.91, 18.32 -42.92 M114.95 35.69 C95.02 17.88, 70.64 -5.58, 21.87 -46.13 M114.47 37.46 C87.08 14.33, 61.47 -9.06, 19.28 -46.85 M119.7 34.63 C88.66 6.27, 56.37 -20.49, 23.82 -49.34 M118.38 35.02 C80.97 0.88, 43.58 -30.41, 22.86 -50.16 M118.44 27.97 C97.97 12.42, 78.63 -4.13, 24.67 -53.44 M119.32 29.74 C91.37 7.52, 65.17 -16.82, 24.35 -52.63 M122.44 24.96 C84.82 -8.66, 49.59 -38.31, 24.54 -56.86 M120.02 25.39 C93.53 2.47, 63.71 -22.22, 26.05 -56.51 M121.23 18.85 C101 3.18, 81.65 -12.23, 26.2 -62.73 M120.68 21.14 C98.11 0.81, 75.57 -20.65, 27.1 -61.35 M122.23 15.16 C99.63 -4.42, 78.42 -22.59, 29.44 -63.29 M122.13 15.32 C89.25 -12.33, 56.86 -40.57, 29.25 -64.83 M124.64 11.34 C93.59 -14.28, 66.12 -35.87, 29.48 -68.23 M123.05 12.69 C90.03 -17.59, 55.04 -47.59, 30.75 -67.53 M124.08 6.39 C89.69 -24.43, 54.09 -50.49, 31.28 -73.08 M124.09 7.58 C96.52 -16.71, 68.89 -40.9, 34.1 -71.78 M122.91 0.47 C89.75 -26.23, 56.39 -57.05, 35.97 -75.6 M123.67 1.08 C97.29 -20.74, 70.22 -44.42, 35.85 -76.46 M123.69 -6.88 C102.89 -18.88, 83.88 -37.08, 35.22 -80.12 M122.79 -5.14 C105.72 -20.09, 86.83 -35.76, 36.5 -79.81 M120.73 -10.94 C93.71 -35.28, 66.24 -60.96, 37.58 -81.95 M122.09 -11.54 C96.85 -31.66, 75.98 -50.7, 38.2 -82.24 M121.24 -16.38 C98.16 -36.31, 73.75 -59.76, 38.14 -88.39 M120.42 -17.66 C99.82 -36.27, 78.33 -54.67, 39.9 -87.79 M118.47 -22.14 C96.65 -44.4, 71.39 -64.69, 40.65 -91.82 M119.39 -23.46 C90.79 -49.69, 62.03 -74.98, 42.88 -89.71 M122.58 -25.93 C96.91 -48.85, 71.46 -69.29, 45.12 -92.01 M121.71 -26.25 C92.55 -52.21, 62.84 -76.65, 45.8 -93.11 M117.94 -36.45 C99.72 -52.3, 79.93 -67.79, 47.46 -95.88 M117.93 -35.36 C97.99 -54.15, 76.3 -72.4, 47.78 -95.22 M110.63 -49.9 C96.87 -58.87, 80.63 -72.72, 52.38 -99.17 M109.31 -47.06 C86.18 -68.34, 64.08 -87.58, 50.7 -99.51 M99.04 -59.11 C89.15 -70.9, 78.18 -78.85, 52.47 -102.2 M99.97 -60.18 C83.33 -75.19, 66.63 -91.35, 53.79 -101.84" stroke="#fa5252" stroke-width="0.5" fill="none"></path><path d="M-0.48 0.24 C7.19 -15.45, 32.45 -79.63, 45.02 -94.44 C57.6 -109.25, 65.27 -95.46, 74.96 -88.64 C84.65 -81.82, 95.94 -64.25, 103.16 -53.51 C110.39 -42.77, 115.39 -37.49, 118.3 -24.19 C121.2 -10.9, 123.61 15.87, 120.58 26.28 C117.55 36.69, 120.38 42.79, 100.13 38.27 C79.88 33.75, 15.79 5.67, -0.9 -0.82 M1.47 -0.68 C9.08 -16.17, 32 -78.63, 44.16 -93.1 C56.31 -107.57, 64.63 -94.22, 74.41 -87.5 C84.19 -80.78, 95.28 -63.42, 102.86 -52.77 C110.44 -42.11, 117.22 -36.67, 119.9 -23.59 C122.59 -10.5, 122.11 15.59, 118.94 25.73 C115.78 35.87, 120.53 41.81, 100.91 37.26 C81.3 32.71, 18.36 4.41, 1.26 -1.59" stroke="#343a40" stroke-width="1" fill="none"></path></g></g><g stroke-linecap="round"><g transform="translate(179.75583529065898 161.0435394709093) rotate(0 -44.34275703419394 59.13447042187022)" fill-rule="evenodd"><path d="M-86.76 74.3 C-86.76 74.3, -86.76 74.3, -86.76 74.3 M-86.76 74.3 C-86.76 74.3, -86.76 74.3, -86.76 74.3 M-87.75 80.63 C-82.23 74.06, -79.68 70.74, -72.5 64.33 M-86.86 80.1 C-84.13 75.8, -81.56 73.78, -73.06 64.24 M-86.36 86.34 C-80.13 78.77, -71.99 69.2, -54.47 50.98 M-85.51 86.11 C-76.5 73.72, -65.61 61.24, -56.1 51.1 M-81.03 85.47 C-66.89 68.91, -56.06 56.37, -36.56 36.27 M-81.78 87.2 C-71.87 74.35, -60.73 62.65, -36.16 36.34 M-80.8 88.16 C-58.25 65.49, -37.31 40.58, -19.51 20.91 M-79.47 89.86 C-66.57 75.42, -54.53 61.78, -18.2 20.62 M-77.05 91.3 C-54.58 70.82, -35.8 44.18, 2.25 2.3 M-75.96 92.42 C-53.46 66.39, -30.18 40.02, 1.99 1.33 M-73.18 94.93 C-43.02 62.86, -15.99 29.29, 1.99 11.01 M-72.27 94.96 C-57.97 77.6, -42.57 61.27, 0.74 10.54 M-67.65 99.11 C-43.93 66.45, -19.92 36.54, 0.49 18.22 M-68.57 97.53 C-55.13 81.87, -40.45 65.06, -0.17 17.82 M-64.96 101.33 C-46.08 77.83, -26.87 52.55, -3.27 25.25 M-65.6 99.06 C-44.57 73.01, -19.82 47.16, -3.15 25.3 M-63.47 101.59 C-44.51 85.25, -28.46 64.79, -2.14 32.37 M-62.92 101.82 C-47.42 83.78, -30.75 66.11, -3.39 33.82 M-60.33 102.03 C-38.36 81.56, -17.67 55.96, -5.17 41.09 M-58.26 102.59 C-46.45 88.67, -33.15 72.17, -5.61 40.71 M-57.26 106.35 C-45.78 95.02, -35.77 80.31, -5.36 47.84 M-55.76 105.37 C-37.32 84.42, -21.08 65.13, -6.22 48.9 M-53.58 106.88 C-33.89 88.69, -16.36 67.55, -6.64 57.33 M-51.45 108.02 C-36.99 90.87, -21.17 72.52, -8.8 57.72 M-46.55 110.97 C-39.25 96.55, -29.39 85.15, -8.32 64.42 M-47.98 110.03 C-40.09 99.17, -31.65 89.51, -8.94 64.19 M-43.79 111.39 C-34.4 101.64, -28.83 91.65, -12.06 71.48 M-43.52 110.35 C-35.66 100.42, -27.49 91.38, -11.66 71.86 M-39.62 112.67 C-33.74 102.51, -24.09 92.39, -13.62 82.06 M-40.54 113.19 C-29.06 99.53, -18.44 87.12, -11.63 79.85 M-35.46 113.52 C-30.18 105.4, -19.02 94.14, -15.23 87.21 M-36.61 113.85 C-28.74 106.18, -22.19 96.64, -13.93 88.67 M-31.55 116.4 C-28.23 110.24, -22.48 104.8, -13.95 95.91 M-32.56 115.76 C-27.53 109.98, -24.78 104.9, -14.85 96.05 M-29.13 116.31 C-23.83 112.2, -19.12 108.31, -17.96 105.22 M-29.18 116.63 C-25.46 113.08, -22.63 110.01, -16.85 104.64 M-24.69 117.38 C-23.02 115.71, -21.24 114.49, -19.13 111.88 M-24.33 117.95 C-22.55 116.58, -21.21 115.35, -18.9 112.15 M-87.39 83.76 C-87.39 83.76, -87.39 83.76, -87.39 83.76 M-87.39 83.76 C-87.39 83.76, -87.39 83.76, -87.39 83.76 M-66.37 97.03 C-68.79 93.33, -77.62 89.38, -87.43 79.27 M-64.28 97.39 C-73.69 89.76, -82.12 82.33, -87.59 77.42 M-50.06 104.54 C-58.94 96.23, -64.53 92.79, -86.68 72.78 M-52.02 103.97 C-63.09 94.29, -76.34 81.75, -85.81 74.2 M-37.7 110.22 C-53.91 97.18, -70.47 84.29, -84.56 69.89 M-37.2 111.93 C-52.85 97.06, -67.49 85.26, -84.48 69.98 M-30.21 114.9 C-41.06 102.33, -52 93.93, -82.03 66.07 M-28.8 113.85 C-45.14 99.84, -61.16 85.82, -80.84 68.36 M-21.16 115.45 C-38.13 103.46, -50.89 88.28, -80.38 63.01 M-20.44 114.26 C-42.85 95.07, -66.53 76.91, -78.33 63.94 M-21.52 109.46 C-36.32 96.94, -55.07 81.77, -75.1 61.67 M-19.53 111.69 C-35 97.15, -48.46 84.96, -76.95 60.86 M-16.67 105.96 C-29.47 94.76, -43.79 85.05, -71.53 61.33 M-18.7 106.85 C-34.59 93.08, -49.33 80.53, -73.32 59.24 M-19.1 102.06 C-31.06 92.12, -40.11 81.5, -67.48 55.96 M-18.99 100.7 C-34.68 86.33, -52.34 72.38, -69.73 57 M-15.02 97.88 C-34.03 82.27, -47.84 70.96, -68.1 53.95 M-16.85 96.85 C-33.55 80.9, -50.62 66.97, -67.44 53.07 M-17.22 90.95 C-26.17 82.67, -40.82 72.28, -63.98 50.45 M-15.47 93.35 C-31.91 77.23, -49.1 62.68, -63.28 51.07 M-15.24 88.59 C-30.9 75.21, -46.56 58.66, -60.09 49.76 M-15.37 88.55 C-31.93 73.08, -50.04 58.81, -60.93 49.25 M-13.4 84.27 C-25.6 74.24, -31.42 66.96, -57.83 45.73 M-14.87 82.84 C-28.01 73.01, -41.94 61.05, -57.51 46.25 M-11.8 79.96 C-23.74 71.19, -34.12 59.64, -53.2 42.09 M-13.52 78.53 C-28.95 65.77, -45.4 50.9, -54.09 42.9 M-12.33 74.58 C-21.13 66.73, -32.28 60.42, -49.68 42.84 M-12.58 73.64 C-23.47 65.8, -34.51 55.16, -51.08 42.04 M-12.88 68.27 C-23.89 60.87, -37.73 47.12, -47.57 37.33 M-11.61 69.68 C-26.22 58.84, -38.76 45.85, -47.97 39.04 M-12.14 64.88 C-24.12 56.65, -36.93 46.02, -45.9 37.27 M-9.79 65.5 C-20.42 56.4, -31.58 47.44, -43.7 36.23 M-11.82 60.25 C-21.82 52.75, -31.53 41.41, -39.78 33.72 M-10.47 61.12 C-18.36 52.38, -26.21 44.87, -40.42 33.36 M-10.67 54.63 C-21.28 48.27, -29.81 35.96, -37.28 31.57 M-9.73 55.47 C-18.27 48.85, -28.04 40.13, -38.86 31.5 M-9.43 51.04 C-16.06 47.34, -21.74 40.16, -33.58 29.85 M-7.71 52.28 C-17.35 43.88, -25.13 36.45, -34.83 28.79 M-8.92 47.7 C-17.29 41.56, -24.96 32.26, -33.04 26.11 M-7.15 47.86 C-14.14 42.2, -18.26 36.86, -31.83 26.22 M-8.18 42.27 C-16.03 34.95, -20.94 28.57, -30.16 22.8 M-5.97 42.88 C-11.45 37.91, -17.64 33.16, -28.34 23.54 M-5.34 38.4 C-10.49 34.28, -20.02 28.29, -27.61 19.67 M-4.58 38.25 C-9.78 34.97, -14.1 30.88, -26.4 20.99 M-3.74 33.97 C-12.79 29.42, -17.97 22.22, -22.42 18.09 M-4.43 32.9 C-11.42 28.1, -18.81 22.53, -22.15 19.14 M-2.06 29.5 C-6.93 26.63, -12.1 23.77, -18.84 15.47 M-4.59 29.56 C-8.39 26.54, -11.54 22.55, -19.16 16.7 M-3.17 26.4 C-5.99 22.13, -8.47 17.88, -18.25 13.57 M-3.03 24.62 C-7.32 21.43, -11.17 17.16, -16.93 12.41 M-3.19 20.73 C-4.21 18.38, -9.65 14.66, -13.98 11.02 M-2.34 20.52 C-6.17 17.34, -8.68 13.28, -13.56 10.53 M-2.51 15.2 C-3.94 14.52, -4.48 11.76, -10.82 9.09 M-1.08 14.93 C-3.42 12.86, -6.1 11.39, -9.51 7.66 M0.21 11.52 C-1.67 10.45, -3.64 9.05, -6.89 5.94 M-0.4 10.92 C-2.2 8.86, -4.94 7.07, -6.71 5.51 M1.31 6.31 C-0.92 5.36, -1.73 4.61, -3.65 3 M1.02 6.58 C-0.6 5.48, -1.72 4.63, -3.73 2.91 M0.96 1.88 C0.51 1.28, -0.17 0.9, -0.33 0.29 M1.22 1.64 C0.66 1.38, 0.3 0.82, -0.28 0.44" stroke="#be4bdb" stroke-width="0.5" fill="none"></path><path d="M0.24 0.16 C-13.64 11.88, -70.46 54.89, -83.59 69.89 C-96.71 84.89, -83.4 84.24, -78.51 90.14 C-73.61 96.03, -62.93 100.56, -54.24 105.27 C-45.55 109.98, -32.31 118.54, -26.36 118.41 C-20.42 118.27, -23.09 124.36, -18.59 104.47 C-14.09 84.59, -2.32 16.51, 0.64 -0.9 M-1.09 -0.81 C-15.14 10.59, -71.67 52.7, -84.73 67.99 C-97.79 83.27, -84.52 84.6, -79.45 90.9 C-74.39 97.2, -62.99 101.65, -54.35 105.79 C-45.71 109.93, -33.29 116.12, -27.62 115.75 C-21.95 115.38, -25.22 122.71, -20.34 103.57 C-15.47 84.44, -2 18.26, 1.62 0.94" stroke="#343a40" stroke-width="1" fill="none"></path></g></g><g stroke-linecap="round"><g transform="translate(179.25290811207537 161.05545122568128) rotate(0 47.53555999786158 61.92796217410523)" fill-rule="evenodd"><path d="M0 0 C0 0, 0 0, 0 0 M0 0 C0 0, 0 0, 0 0 M-1.81 7.19 C-0.05 5.7, 0.8 4.79, 3.76 0.31 M-1.85 7.64 C0.01 6.85, 0.72 5.29, 4.05 1.55 M-2.41 16.38 C1.28 10.69, 3.69 9.64, 7.14 2.43 M-2.31 15.92 C0.72 12.68, 4.45 7.1, 8.61 2.19 M-3.84 22.57 C-1.71 21.15, 3.12 15.13, 11.09 3.79 M-3.77 24.22 C-0.49 17.98, 3.06 12.61, 12.2 3.88 M-5.28 29.66 C-1.68 25.79, 5.39 17.55, 15.82 5.46 M-5.57 31.31 C0.1 23.86, 5.05 17.33, 16.57 6.77 M-8.37 40.12 C-2.59 32.33, 6.11 23.76, 18.97 7.29 M-9.34 41.22 C-1.62 31.72, 6.65 22.74, 20.6 7.63 M-9.14 46.24 C-2.48 40.83, 6.62 30.02, 24.92 8.98 M-9.61 48.97 C3.34 32.56, 16.98 18.75, 24.05 8.37 M-11.41 54.31 C-3.41 44.98, 6.89 37.78, 28.14 11.67 M-11.81 56.28 C1.2 42.35, 13.53 28.23, 28.69 11.01 M-13.86 65.32 C1.12 48.66, 13.5 34.09, 30.43 11.53 M-13.8 63.74 C1.08 46.14, 17.32 28.29, 32.85 12.92 M-16.22 71.27 C5.79 48.82, 23.87 27.12, 36.47 13.38 M-14.77 72.8 C5.53 48.13, 24.39 24.72, 36.54 13.94 M-16.98 78.84 C1.58 60.04, 20.2 37.81, 38.96 16.32 M-17.36 78.9 C-2.94 65.52, 8.55 50.93, 39.93 15.66 M-18.96 88.98 C2.04 68.14, 17.05 47.1, 46.26 15.39 M-17.9 88.69 C-4.39 69.76, 10.19 53.35, 44.5 16.53 M-15.01 92.01 C5.12 65.32, 26.29 44.96, 47.51 19.13 M-14.62 90.66 C6.08 65.9, 28.58 42.94, 47.54 17.09 M-16.09 95.9 C3.39 79.38, 19.23 59.68, 52.26 19.25 M-16.32 97 C3.53 74.53, 23.89 51.8, 53.22 19.13 M-17.2 103.17 C0.45 84.81, 21.71 61.72, 55.57 20.28 M-16.82 104.04 C-1.25 87.58, 14.65 68.79, 55.19 20.9 M-16.76 114.44 C1.6 90.94, 22.47 67.19, 61.65 21.09 M-18.97 113.38 C7.5 82.67, 32.26 54.01, 59.6 22.29 M-18.46 118.43 C11.56 83.95, 40.04 51.64, 65.02 24.66 M-17 117.45 C-1.72 98.56, 16.34 79.47, 63.7 24.01 M-15.31 120.18 C10.62 91.29, 34.8 62.78, 70.06 23.58 M-15.17 121.31 C2.71 100.75, 19.12 80.63, 68.86 24.79 M-10.71 122.91 C22.44 84.76, 53.03 46.14, 72.21 25.75 M-11.39 124.01 C12 96.32, 34.98 67.4, 71.16 26.56 M-8.11 123.58 C6.54 106.57, 24.37 85.19, 77.54 27.96 M-7.43 123.81 C21.54 89.02, 52.01 54.33, 76.45 27.63 M-3.25 123.62 C26.44 93.63, 49.85 63.36, 79.91 29.55 M-1.75 124.35 C17.55 101.6, 37.89 76.87, 80.93 29.91 M4.19 126.18 C20.47 103.39, 39.94 82.61, 84.58 30.02 M2.34 123.61 C30.15 92.9, 57.9 62.3, 84.15 30.04 M8.33 124.62 C35.72 89.84, 64.51 56.16, 89.34 34.66 M9.75 123.83 C34.55 93.87, 60.05 64.02, 87.66 32.63 M14.1 123.56 C33.41 101.7, 51.19 82.28, 92.13 32.14 M14.2 122.19 C42.42 90.9, 69.08 60.11, 92 33.43 M18.95 122.8 C43.38 98.18, 64.01 72.47, 96.15 36.21 M21.24 122.27 C46.57 93.31, 70.98 63.65, 95.3 36.52 M24.55 123.89 C54.42 92.67, 79.7 60.05, 100.88 36 M25.48 122.22 C41.31 102.66, 57.53 83.65, 99.67 38.23 M29.91 123.35 C43.63 104.91, 60.08 90.28, 101.77 38.68 M29.1 123.47 C56.23 93.78, 83.82 63.06, 104.39 39.35 M39.53 120.88 C61.85 94.29, 82.55 68.63, 105.31 40.33 M37.44 120.59 C53.99 104.13, 67.76 86.88, 106.4 41.55 M44.79 118.69 C66.74 94.28, 87.83 65.49, 111.39 41.56 M45.84 118.11 C64.38 97.07, 83.01 76.79, 110.09 42.59 M53.42 116.25 C71.77 92.6, 90.62 72.12, 113.7 45.44 M52.53 114.88 C74.43 89.5, 96.7 64.16, 113.13 47.74 M112.3 47.61 C112.76 46.84, 113.5 46.5, 114.72 44.96 M112.4 47.5 C113.17 46.4, 114.05 45.69, 114.45 45.26 M62.88 112.78 C77.32 92.74, 92.9 78.08, 111.73 55.59 M62.36 110.33 C73.32 98.85, 84.05 87.2, 110.03 54.76 M-13.57 122.31 C-13.57 122.31, -13.57 122.31, -13.57 122.31 M-13.57 122.31 C-13.57 122.31, -13.57 122.31, -13.57 122.31 M-7.26 125.41 C-9.71 118.78, -15.02 114.78, -19.11 112.81 M-6.53 123.3 C-9.55 121.54, -11.59 118.54, -19.1 112.06 M0.57 122.63 C-3.17 121.35, -7.56 115.24, -17.68 108.51 M-0.23 123.28 C-6.47 116.7, -13.94 110.88, -18.73 107.96 M2.31 123.69 C-2.42 119.08, -6.08 111.87, -19.76 103.52 M4.02 122.41 C-4.08 114.66, -14.13 106.01, -19.02 102.84 M10.91 121.61 C2.49 114.62, -1.58 109.7, -17.46 96.68 M9.87 121.87 C-0.24 113.95, -9.06 105.83, -19.42 97.17 M15.36 120.48 C4.29 111.78, -5.39 104.31, -17.9 89.86 M15.01 121.7 C1.36 109.12, -12 97.01, -19.39 92.13 M21.22 121.21 C9.22 111.01, -4.5 97.48, -16.54 88.39 M21.15 119.86 C9.27 109.15, -4.12 98.51, -18.31 87.55 M28.92 121.15 C15.97 112.42, 7.58 103.71, -18.07 81.38 M27.86 121.41 C14.36 110.7, 1.79 99.38, -16.9 83.74 M31.67 117.75 C19.97 106.83, 5.71 97.11, -16.53 78.61 M31.79 119.77 C14.26 104.5, -4.35 88.28, -15.96 77.98 M34.86 116.14 C16.26 100.75, -0.43 84.83, -13.66 73.54 M35.6 117.77 C24.93 107.89, 14.47 98.81, -13.23 75.09 M39.64 114.75 C27.12 103.53, 14.84 92.14, -13.34 70.24 M40.96 116.97 C23.21 100.09, 5.21 85.18, -14.42 69.92 M44.55 116.35 C27.06 101.74, 13.75 85.59, -12.12 65.68 M45.6 114.11 C29.49 103.1, 16.55 90.06, -12.29 65.17 M48.43 111.59 C31.88 100.82, 16.26 87.01, -13.44 61.37 M49.66 112.35 C34.93 100.18, 20.43 89.09, -11.44 60.66 M53.76 111.99 C30.29 91.91, 8.93 72.11, -10.2 57.66 M52.47 111.72 C27.94 89.39, 2.52 68.35, -9.42 57.12 M57.8 110.24 C35 91.02, 15.64 75.18, -11.88 52.02 M57.15 109.04 C31.63 86.57, 6.04 65.14, -10.49 52.08 M62.96 107.8 C33.36 84.58, 7.45 57.69, -7.21 45.29 M60.37 107.08 C37 86.52, 12.97 66.43, -8.73 47.69 M66.42 105.9 C46.54 87.62, 24.97 71.38, -6.24 41.39 M65.46 105.08 C45.76 90.79, 29.3 73.84, -8.78 41.93 M69.53 103.77 C48.7 88.5, 30.65 68.49, -7.03 37.55 M69.22 104.58 C41.77 80.32, 12.68 57.08, -7 38.47 M70.91 101.66 C54.65 86.29, 39.13 70.5, -6.7 34.63 M72.43 102.02 C41.26 75.58, 12.06 49.09, -7.2 32.52 M74.08 97.1 C55.98 80.87, 36.27 64.61, -4.11 27.37 M74.98 98.49 C43.19 69.81, 10.95 42.85, -5.77 28.64 M78.08 97.2 C54.01 75.46, 27.38 53.4, -5.97 24.08 M77.89 95.67 C50.79 72.92, 23.77 49.58, -4.4 24.02 M78.87 92.92 C63.98 76.41, 44.38 61.3, -1.46 20.87 M80.15 93.62 C53.74 69.75, 24.47 44.75, -3.26 20.24 M81.42 88.72 C65.41 75.22, 47.89 58.56, -1.35 15.99 M84.24 90.02 C62.29 70.64, 40.66 51.49, -2.72 15.2 M86.87 86.86 C56.83 59.98, 28.86 36.99, -0.63 12.09 M86.76 86 C52.44 59.18, 20.98 30.29, -2.45 10.89 M87.63 83.65 C52.78 52.33, 19.8 24.83, -0.66 7.84 M88.91 83.96 C59.54 57.48, 27.85 31.52, -0.22 6.67 M90.75 82.48 C58.7 54.79, 26.52 27.04, 0.24 0.27 M91.37 82.19 C68.21 62.76, 45.15 42.13, 1 3.05 M92.82 77.35 C59.96 49.46, 27.67 18.63, 0.41 -0.33 M94.58 77.95 C74.85 61.84, 55.39 43.68, 2.05 -1.72 M94.57 73.26 C76.26 55.22, 51.4 34.69, 11.02 1.78 M96.8 75.37 C78.77 59.71, 62.04 44.75, 13.25 1.98 M99.04 73.07 C84.78 55.86, 66.95 43.21, 24.26 5.16 M99.72 71.98 C77.82 52.99, 56.84 34.11, 21.96 6.16 M100.63 68.55 C82.2 51.66, 63.96 34.98, 32.19 11.02 M100.95 69.21 C85.64 54.84, 72.63 43.63, 32.93 10.59 M104.79 64.6 C84 48.34, 62.28 28.33, 46.75 14.39 M103.11 64.27 C88.02 53.07, 75.75 40.07, 45.68 13.52 M104.13 60.92 C95.4 50.67, 83.09 39.36, 56.4 17.72 M105.45 61.28 C86.29 45.21, 68.64 30.05, 54.65 16.84 M106.52 57.62 C93.33 47.42, 81.73 34.69, 66.77 20.45 M107.3 58.56 C94.44 46.63, 80.24 34.13, 65.24 21.22 M109.98 54.86 C102.41 47.8, 94.83 41.68, 78.5 26.71 M108.48 53.72 C101.3 46.93, 90.99 39.13, 77.11 25.4 M110.83 50.41 C101.38 42.6, 95.88 35.96, 87.9 30.94 M112.84 50.87 C105.75 44.59, 97.38 40.03, 86.24 29.3 M111.01 48.73 C107.97 43.78, 100.95 38.02, 98.8 34.78 M113.02 47.2 C108.01 42.59, 104.89 39.25, 96.27 32.56" stroke="#4c6ef5" stroke-width="0.5" fill="none"></path><path d="M0.16 -0.36 C-2.95 18.23, -22.18 91.49, -19.12 111.82 C-16.07 132.15, 7.89 121.13, 18.49 121.62 C29.09 122.11, 35.19 117.86, 44.48 114.75 C53.78 111.65, 65.95 108.86, 74.26 102.99 C82.57 97.11, 89.38 86.57, 94.34 79.52 C99.3 72.47, 101.06 66.1, 104.03 60.69 C107 55.29, 112.07 50.63, 112.16 47.08 C112.25 43.54, 123.19 47.08, 104.57 39.41 C85.96 31.75, 18.04 7.54, 0.47 1.1 M-1.22 -1.6 C-4.41 17.15, -23.53 92.48, -19.85 113.18 C-16.18 133.87, 10.17 122.09, 20.84 122.58 C31.5 123.06, 35.39 119.8, 44.15 116.07 C52.91 112.34, 64.78 106.42, 73.41 100.21 C82.03 94, 90.76 85.09, 95.89 78.82 C101.02 72.54, 101.66 67.98, 104.2 62.58 C106.74 57.17, 111.31 50.45, 111.13 46.39 C110.94 42.32, 121.36 45.73, 103.09 38.2 C84.81 30.68, 18.83 7.84, 1.48 1.22" stroke="#343a40" stroke-width="1" fill="none"></path></g></g><g transform="translate(10 10) rotate(0 14.5 16)"><text x="0" y="23" font-family="Virgil, Segoe UI Emoji" font-size="20px" fill="#000000" text-anchor="start" style="white-space: pre;" direction="ltr">Pie</text></g></svg>