<svg version="1.1" xmlns="http://www.w3.org/2000/svg" viewBox="0 0 601.8889715909958 341.4848665974755" width="601.8889715909958" height="341.4848665974755">
  <!-- svg-source:excalidraw -->
  
  <defs>
    <style>
      @font-face {
        font-family: "Virgil";
        src: url("https://excalidraw.com/Virgil.woff2");
      }
      @font-face {
        font-family: "Cascadia";
        src: url("https://excalidraw.com/Cascadia.woff2");
      }
    </style>
  </defs>
  <rect x="0" y="0" width="601.8889715909958" height="341.4848665974755" fill="#ffffff"></rect><g stroke-linecap="round" transform="translate(79.30026048023217 70) rotate(0 20 120)"><path d="M0 0 C0 0, 0 0, 0 0 M0 0 C0 0, 0 0, 0 0 M-0.58 6.31 C1.62 4.22, 2.97 2.14, 5.23 0.13 M-0.2 6.21 C0.62 5.39, 1.91 3.63, 5 0.28 M0.98 12.92 C4.26 6.62, 7.17 5.4, 12.19 -0.64 M0.86 11.92 C4.14 8.4, 7.82 3.24, 11.4 0.73 M-1.28 19.61 C5.01 11.3, 9.38 6.08, 17.61 0.98 M0.53 18.95 C4.15 13.35, 9.67 8.59, 16.41 1.08 M0.35 23.07 C6.43 17.38, 16 6.73, 23.15 -1.61 M1.23 23.18 C4.38 18.39, 8.72 13.09, 20.96 -0.12 M0.06 32.17 C8.35 18.07, 21.03 6.81, 26.16 0.54 M0.69 30.92 C8.02 21.89, 16.66 11.32, 25.68 -0.47 M-0.05 37.11 C9.05 24.1, 20.52 13.61, 33.78 -2.06 M-0.54 36.67 C6.43 27.07, 15.78 19.2, 31.02 0.36 M-1.36 43.48 C9.5 31.57, 23.14 18.87, 36.4 0.13 M1.02 42.62 C14.85 27.01, 28.68 8.51, 36.01 0.04 M-0.3 50.17 C13.22 34.79, 25.75 17.16, 42.02 2.8 M-0.42 48.01 C11.89 35.28, 22.12 21.74, 42.02 2.27 M-1.41 55.71 C10.76 41.27, 22.9 32.83, 42 8.73 M0.49 55.09 C11.94 40.08, 24.36 26.72, 41.96 7.19 M-0.21 59.94 C14.81 42.12, 30.4 25.66, 43.3 12.02 M0.79 60.34 C10.88 48.31, 23.11 35.99, 41.94 13.29 M-0.2 66.35 C10.22 59.2, 17.34 48.25, 41.65 20.36 M-0.34 68.34 C14.4 50.79, 31 32.11, 41.92 19.18 M-0.5 71.96 C8.08 63.17, 19.04 49.84, 42.56 23.59 M0.2 73.26 C14.67 56.82, 27.88 40.58, 42.11 25.71 M0.59 81.21 C10.42 66.14, 22.86 53.9, 41.72 31.57 M-0.66 80.31 C15.87 62, 32.15 43.45, 40.84 31.44 M0.53 84.3 C15.96 67.55, 30.25 50.93, 39.98 36.6 M0.21 85.61 C13.8 71.02, 26.1 56.5, 40.94 36.57 M1.72 90.89 C8.33 80.86, 15.66 72.98, 40.46 43.01 M0.69 91.45 C14.97 73.39, 28.76 56.84, 40.35 44.13 M-1.61 96.37 C11.95 81.83, 26.99 67.34, 39.52 49.51 M-0.15 98.18 C12.78 83.54, 23.66 70.86, 40.47 49.91 M1.08 103.82 C17.26 87.06, 32.15 66.5, 43.2 55.12 M-0.23 103.67 C12.47 87.69, 25.77 73.43, 42.05 55.89 M0.98 109.86 C10.75 97.69, 21.4 82.73, 39.56 61.03 M-0.6 110.73 C14.91 92.92, 29.06 75.38, 40.99 61.72 M0.96 115 C10.24 103.99, 22.4 90.51, 41.71 68.94 M0.94 115.08 C11.77 100.84, 24.68 87.51, 40.8 68.59 M0.66 121.31 C9.37 109.74, 22.82 97.86, 40.92 74.73 M0.43 122.5 C13.11 106.97, 25.89 93.29, 41.11 74.47 M-0.54 126.73 C6.92 119.15, 19.46 107.13, 41.57 78.8 M0.17 128.78 C14.12 111.68, 28.75 94.24, 40.11 80.04 M0.9 135.03 C11.93 119.72, 22.85 105.26, 41.55 87.97 M0.49 133.17 C8.51 122.74, 18.29 112.76, 42.37 86.1 M1.07 141.62 C18.38 120.81, 34.6 102.22, 40.72 93.34 M-0.31 139.82 C8.76 129.83, 18.59 120.54, 40.72 93.04 M-0.4 147.93 C8.74 135.56, 18.19 125.86, 39.82 96.67 M0.37 145.68 C14.4 130.45, 28.55 114.33, 42.59 98.76 M0.76 151.08 C9.93 142.22, 19.51 128.55, 41.61 104.01 M0.04 151.74 C14.52 134.46, 29.38 116.81, 40.67 103.86 M0.45 158.22 C13.56 142.94, 28.69 123.96, 41.87 112.08 M-0.49 158.92 C15.75 140.29, 31.92 120.22, 41.23 111.57 M-1.42 164.38 C12.96 151.52, 24.63 134.14, 41.76 118.1 M0.72 163.53 C14.22 147.68, 28.84 131.9, 41.98 117.22 M-0.47 170.41 C8.46 160.69, 16.6 151.71, 40.26 121.74 M0.59 170.73 C10.73 157.8, 22.88 145.25, 41.96 123.63 M-0.97 177.3 C11.54 162.76, 27.02 144.38, 41.13 127.43 M-0.54 176.41 C11.87 161.47, 24.63 147.91, 41.91 129.07 M1.39 183.84 C14.48 168.02, 27.61 154.77, 42.02 134.02 M-0.39 182.45 C15.14 165.98, 30.07 147.86, 40.82 134.48 M-1.61 188.97 C10.62 176.42, 24.17 161.47, 41.47 141.15 M-0.33 188.57 C9.2 178.19, 19.72 166.87, 40.37 141.35 M1.7 193.66 C11.35 183.49, 19.98 170.35, 43.28 147.1 M0.49 195.86 C15.65 177.59, 30.04 159.48, 40.74 147.17 M-0.67 202.8 C9.87 188.89, 19.34 176.97, 40.93 154.71 M-1.04 202.16 C13.67 185.78, 26.98 168.78, 40.5 152.92 M-1.46 207.57 C9.14 197.16, 18.22 187.28, 40.58 157.71 M0.45 205.99 C14.39 189.72, 29.05 173.58, 40.96 158.94 M-0.99 215.04 C10.18 203.71, 16.31 193.47, 42.13 166.39 M-0.69 213.79 C9.6 203.82, 17.31 193.79, 40.77 166.16 M-0.22 218.59 C9.5 206.83, 21.36 196.34, 42.26 173.92 M-0.67 219.81 C9.66 208.89, 19.31 197.8, 40.32 172.01 M-0.32 223.74 C8.92 213, 18.34 203.58, 42.79 178.27 M-0.43 225.56 C13.52 210.76, 26.7 194.85, 41.58 177.88 M1.7 230.06 C14.51 211.94, 32.01 194.58, 43.08 184.08 M0.22 231.27 C13.25 217.01, 26.85 200.81, 41.94 184.56 M0.01 237.51 C9.39 228.09, 17.68 216.51, 43.05 189 M0.94 237.79 C14.42 221.59, 26.5 207.44, 42.62 190.13 M3 241.85 C14.58 225.2, 27.05 212.78, 40.24 197.36 M1.48 241.54 C10.63 231.96, 17.91 223.01, 41.22 197.24 M5.69 239.99 C18.21 230.39, 26.97 218.03, 40.85 202.53 M7.4 241.45 C16.77 229.9, 27.7 217.13, 40.18 202.93 M14.1 240.39 C24.48 229.01, 33.39 214.19, 40.06 208.77 M12.02 240.94 C18.52 233.89, 23.88 226.84, 40.53 208.18 M17.64 239.92 C25.09 234.69, 29.06 229.19, 42.52 213.13 M18.08 242.31 C26.06 230.52, 36.39 220.31, 41.83 215.26 M24.73 241.99 C30.74 235.21, 36.62 226.88, 41.27 219.84 M22.92 242.41 C31.16 233.18, 36.4 226.07, 42.5 219.71 M27.94 242.15 C31.77 238.81, 33.38 237.64, 42.88 225.89 M29.03 241.86 C32.46 238.29, 36.56 233.5, 40.43 227.56 M34.84 241.62 C35.14 239.42, 37.74 236.73, 41.83 232.22 M33.45 241.9 C36.02 239.39, 37.36 236.73, 41.26 233.17 M-0.34 239.7 C-0.34 239.7, -0.34 239.7, -0.34 239.7 M-0.34 239.7 C-0.34 239.7, -0.34 239.7, -0.34 239.7 M6.61 240.71 C4.56 239.14, 3.53 237.44, -0.32 234.54 M6.13 240.2 C4.71 238.74, 3.62 237.87, 0.2 234.95 M12.63 241.68 C7.41 237, 6.81 232.79, -0.33 228.37 M12.21 240.41 C7.04 236.57, 3.35 232.57, -0.9 229.18 M16.12 241.29 C11.17 234.1, 8.25 231.99, 1.26 224.63 M18.18 238.93 C12.27 234.02, 5.56 228.6, 0.86 224.2 M23.74 238.37 C18.3 233.93, 10.41 227.31, 1.84 221.09 M24.25 239.97 C16.78 232.05, 6.93 226.77, 1.03 219.81 M29.83 239.53 C22.13 233.57, 15.86 227.28, 0.1 214.48 M29.78 239.98 C20.81 231.62, 13.08 223.94, -0.73 213.25 M37.5 239.93 C23.69 231, 12.98 221.55, 0.16 210.39 M37.47 240.25 C26.17 231.66, 16.75 223.27, 0.18 208.72 M42.26 237.23 C25.65 226.07, 13.16 216.37, 0.63 202.2 M42.31 238.24 C31.52 229.61, 22.19 222.54, -0.27 201.89 M40.6 233.17 C25.79 220.03, 16.21 209.74, -0.96 195.94 M41.69 232.77 C32.68 225.79, 23.87 218.15, 1.13 198.4 M39.75 227.09 C26.81 216.49, 14.04 201.5, 0.21 192.71 M40.5 228.96 C26.82 215.06, 10.89 201.25, 0.57 191.77 M42.67 224.39 C32.1 215.63, 24.31 206.97, 0.58 185.47 M41.63 222.43 C31.86 215.58, 22.52 206.2, 1.1 187.85 M40.97 217.41 C34.36 210.44, 25.6 204.8, 0.65 181.5 M42.28 217.61 C24.96 202.7, 7.39 188.97, 0.39 180.76 M39.29 211.76 C23.86 197.31, 10.82 183.69, 1.31 175.23 M41.8 211.69 C25.69 198.82, 10.15 185.74, 0.58 177.31 M39.68 207.22 C29.52 197.12, 18.01 188.59, 0.2 170.63 M41.5 207.05 C27.16 195.41, 13.74 182.9, 0.07 170.95 M41.96 200.09 C32.21 193.35, 22.3 184.33, 0.17 166.06 M40.46 201.24 C24.32 187.15, 10.1 174.39, -0.65 166.22 M40.11 196.09 C26.72 183.95, 12.37 172.03, 1.55 160.7 M41.32 197.36 C27.6 183.47, 12.89 170.3, -1.22 160.66 M42.62 192.73 C29.74 184.72, 22.76 176.09, -1.41 155.36 M40.14 190.03 C25 177.42, 8.55 163.06, 0.46 155.27 M40.9 184.18 C33.74 177.93, 23.98 170.87, -0.19 150.9 M42.18 185.82 C31.06 175.99, 18.95 166.27, -0.02 150.42 M41.63 179.62 C26.97 168.17, 11.42 152.61, 0.39 145.09 M41.68 179.21 C27.74 168.07, 14.73 157.53, 0.26 144.32 M43.14 176.18 C23.96 160.17, 9.64 150.27, -1.47 138.97 M41.77 174.96 C28.98 163.49, 16.33 152.69, -0.62 138.96 M39.8 169.25 C30.97 163.46, 25.23 153.31, -0.15 133.76 M40.18 170.14 C25.63 156.18, 10.93 143.4, 0.36 134.5 M42.36 165.38 C28.14 154.6, 17.89 143.32, -2.28 129.2 M41.11 164.5 C27.24 152.94, 14.43 140.96, -1 129.26 M42.37 160.66 C30.41 149.34, 22.92 141.68, 1.69 124.46 M41.02 158.44 C29.43 147.54, 17.47 137.33, -0.33 124.12 M40.52 153.6 C29.61 144.04, 21.46 138.08, -2.19 116.46 M40.46 153.4 C31.17 146.32, 22.31 137.29, -0.87 118.5 M39.79 148.14 C23.62 135.17, 9.86 122.32, 1.06 112.83 M40.62 148.55 C26.01 135.56, 12.37 123.46, 0.36 112.74 M42.03 143.24 C34.5 135.12, 25.48 129.98, 0.42 106.84 M41.38 143.83 C29.53 133.76, 16.05 122.4, 1.1 108.74 M40.66 138.53 C29.65 127.32, 22.32 120.39, -0.46 103.08 M41.42 139.19 C26.43 125.38, 11.02 112.74, -0.1 103.11 M41.72 133.26 C27.91 123.34, 14.19 108.8, 1.35 99.01 M40.71 133.16 C30.69 123.9, 21.78 116.38, 0.25 96.3 M40.3 127.24 C32.75 117.83, 20.76 110.77, 1.16 91.99 M42.41 127.28 C25.58 113.76, 9.78 100.15, -0.96 91.22 M40.87 123.18 C26.5 108.96, 9.09 92.66, -0.9 88.17 M40.58 122.02 C31.67 113.19, 20.37 103.99, 0.47 85.67 M41.7 115.58 C26.92 102.95, 13.12 91.78, 0.39 80.88 M42.09 117.27 C30.17 106.65, 17.5 95.55, -0.2 80.27 M39.19 113.08 C31.17 102.94, 20.58 95.27, -0.15 75.45 M40.37 112.22 C31.5 103.64, 22.95 94.27, 1.18 76.9 M40.29 107.39 C28.12 95.91, 18.63 86.51, -1.87 71.65 M41.26 105.85 C25.52 92.2, 9.07 76.71, -0.52 70.67 M42.83 99.61 C27.67 89.85, 16.3 79.65, -1.78 64.51 M40.78 100.81 C30.46 91.73, 21.87 83.37, 0.08 66.29 M39.95 97.12 C27.71 83.59, 15.95 74.59, 1.72 58.76 M40.99 95.92 C32.2 87.82, 21.98 79.77, 0.68 60.07 M40.39 91.97 C33.58 83.1, 21.21 75.06, 1.28 53.61 M41.76 90.06 C32.88 82.52, 23.75 73.87, 1.14 54.32 M40.97 85.74 C29.2 74.49, 17.19 61.16, 0.93 49.22 M40.63 84.61 C27.78 73.8, 15.28 61.9, -0.73 49.32 M42.89 79.93 C27.13 65.71, 9.27 52.07, 0.5 43.53 M40.56 79.44 C30.21 69.56, 20.32 61.42, 0.63 43.71 M40.12 72.82 C30.18 63.57, 17.54 54.37, -0.03 38.64 M41.82 75.27 C30.65 65.47, 20.44 55.54, 0.39 38.49 M39.79 69.84 C29.16 61.54, 18.58 51.46, -0.16 33.65 M41.71 69.66 C24.78 56.97, 10.41 44.11, 1.09 33.41 M42.56 64.46 C27.52 51.48, 11.85 38.22, 1.51 27.13 M40.47 63.43 C32.24 56.56, 25.16 50.15, 0.48 26.89 M38.99 56.58 C33.76 48.95, 24.66 41.17, -0.34 21.9 M41.02 58.63 C30.32 49.91, 18.59 39.83, -0.67 22.55 M41.93 53.35 C27.69 41.38, 10.12 26.25, -1.38 15.43 M40.79 52.9 C32.9 46.17, 24.44 37.97, -0.75 17.03 M38.84 47.61 C30.49 39.39, 19.72 29.39, 0.76 12.75 M41.56 47.49 C32.76 39.31, 23.34 32.83, 0.47 12.51 M40.27 42.71 C29.5 30.78, 15.12 20.53, -1.17 4.79 M41.25 41.66 C29.61 32.32, 18.04 22.35, -0.3 6.63 M40.87 35.6 C26.01 21.13, 9.59 9.88, 0.39 1.26 M42.48 37.26 C26.73 24.44, 11.75 13.19, -0.11 0.9 M40.08 30.36 C30.07 22.64, 21.45 13.64, 2.38 -0.98 M40.61 31.93 C30.21 22.86, 19.53 14.45, 2.36 -1.38 M42.77 27.84 C34.09 18.06, 23.67 10.09, 8.54 -3.73 M41.9 26.21 C34.9 20.78, 28.25 14.52, 7.56 -1.28 M40.3 20.66 C33.22 12.93, 25.15 6.36, 13.2 -0.93 M41.92 22.15 C32.96 14.67, 26.2 8.72, 14.35 -2.27 M42.96 18.12 C34.62 10.61, 26.82 4.1, 18.79 -1.99 M41.51 15.77 C32.88 8.36, 24.98 1.82, 20.89 -1.92 M40.29 12.53 C35.48 7.94, 30.91 0.91, 24.34 -0.63 M40.49 10.97 C35.26 4.99, 30.65 0.53, 26.68 -3.19 M41.48 4.77 C37.04 1.73, 34.77 -1.14, 33.31 -2.1 M41.49 5.86 C37.59 2.11, 33.89 -0.09, 32.35 -2.1" stroke="#228be6" stroke-width="0.5" fill="none"></path><path d="M-0.86 0.15 C7.35 0.23, 19.58 -0.86, 40.3 0.02 M0.49 -0.75 C13.79 0.1, 27.12 0.94, 39.31 0.34 M40.06 0.63 C38.37 73.06, 39.03 147.72, 39.18 240.26 M40.34 0.16 C37.69 56.36, 38.95 114.36, 39.84 240.31 M40.9 240.67 C31.37 240.56, 22.69 238.05, 0.93 241.05 M39.02 239.04 C31.02 240.17, 20.41 240.91, 0.63 239.01 M1.57 240.39 C2.6 149.98, 1.62 63.11, 0.86 -0.43 M0.64 240.73 C1.1 183.32, 0.34 125.32, -0.63 -0.8" stroke="#000000" stroke-width="1" fill="none"></path></g><g stroke-linecap="round" transform="translate(319.30026048023217 151.1111111111113) rotate(0 20 80)"><path d="M0 0 C0 0, 0 0, 0 0 M0 0 C0 0, 0 0, 0 0 M-0.35 6.46 C1.7 3.67, 3.76 2.08, 4.76 -0.19 M-0.45 6.07 C1.76 4.26, 3.03 2.66, 4.91 0.46 M1.02 12.81 C2.38 7.97, 8.82 4.98, 10.03 0.68 M0.01 12.43 C3.81 8.75, 5.98 5.43, 11.39 -0.01 M1.04 18.7 C2.06 13.99, 6.15 11.76, 16.27 0.12 M0.39 18.3 C6.02 12.27, 12.49 5.36, 16.37 0.66 M-0.75 23.47 C9.92 16.49, 15.62 6.9, 19.72 -1.66 M-0.63 23.52 C5.76 16.27, 11.66 10.07, 21.21 0.76 M1.7 29.08 C9.57 19.68, 20.31 6.36, 26.5 0.4 M0.44 30.52 C8.91 21.42, 15.87 10.64, 25.48 0.47 M-0.02 36.29 C11.23 23.11, 25 9.97, 29.94 -1.18 M-0.46 35.9 C10.99 23.74, 24.13 8.72, 32.35 -0.2 M1.1 41.53 C15.2 28.97, 28.52 10.7, 36.75 2.16 M0.24 42.59 C11.18 30.28, 19.2 18.72, 36.66 0.4 M1.13 49.51 C15.11 32.49, 26.85 16.54, 42.64 0.85 M-1.03 49.9 C14.17 31.76, 28.57 15.51, 42.1 0.87 M1.42 54.33 C7.92 46.1, 20.39 34.55, 43.32 6.91 M0.8 54.11 C12.69 39.44, 26.23 25.19, 41.77 7.87 M-1.01 59.89 C12.35 44.84, 27.04 33.44, 39.95 12.94 M-0.61 60.27 C11.68 47.95, 23.63 35.63, 41.22 12.56 M-1.25 68.95 C14.26 52.89, 25.96 39.32, 41.63 21.09 M0.73 66.74 C11 56.23, 20.16 44.04, 40.45 19.04 M-0.9 71.84 C14.46 58.12, 25.3 43.03, 39.61 26.43 M0.41 73.3 C14.63 55.94, 29 41.33, 41.73 25.11 M1.69 79.03 C12.19 65.46, 25.53 49.95, 40.94 33.54 M0.79 79.17 C10.3 68.88, 19.51 57.4, 40.8 32.33 M-0.46 86.26 C10.83 72.81, 22.32 56.74, 40.72 37.65 M0.85 85.57 C11.01 73.55, 21.24 61.14, 40.68 36.6 M-0.53 90.92 C10.66 76.36, 23.96 64.5, 40.46 45.05 M0.03 91.6 C11.3 76.09, 24.14 61.7, 41.58 43.96 M-1.71 97.19 C9.32 87.17, 20.42 71.25, 40.3 50.14 M0.1 98.7 C11.21 83.86, 24.25 70.03, 40.7 51.16 M0.49 104.63 C14.85 88.76, 25.37 75.83, 40.67 56.13 M0.34 102.78 C9.54 91.38, 20.47 80.11, 41.44 55.7 M-0.13 108.87 C9.4 97.98, 16.19 88.21, 39.92 63.61 M0.74 110.29 C16.41 90.98, 32.36 72.61, 40.61 61.93 M-0.24 114.64 C12.75 102.57, 23.23 88.8, 42.58 67.71 M-0.16 114.74 C7.88 105.54, 16.85 94.46, 42.23 67.58 M-0.59 120.24 C10.55 110.93, 21.37 97.66, 41.71 74.45 M0.6 122.53 C12.73 107.36, 26.75 91.07, 41.45 73.6 M-1.83 126.6 C16.5 112.34, 30.42 93.57, 39.12 81.91 M0.22 127.53 C9.06 116.97, 17.52 106.64, 40.36 80.69 M1.22 133.92 C14.54 115.74, 28.64 100.11, 43.04 84.77 M-0.63 133.11 C9.84 121.57, 20.8 110.34, 41.17 87.38 M1.15 142.34 C10.76 128.6, 22.62 113.01, 41.75 91.03 M-0.64 140.25 C9.58 129.78, 20.46 116.61, 41.46 92.12 M2.21 144.97 C13.73 130.16, 27.93 114.59, 39.83 99.07 M-0.03 146.02 C9.32 136.29, 17.77 126.62, 41.92 97.77 M-1.29 152.39 C10.34 141.33, 17.19 130.67, 40.52 106.07 M-0.63 151.5 C7.5 141.88, 15.32 132.63, 40.36 105.5 M-0.81 157.64 C15.02 141.77, 27.12 127.89, 41.92 113.09 M-0.11 158.26 C9.52 147.2, 17.78 136.77, 41.42 111.3 M2.07 162.7 C18.09 145.52, 29.6 129.63, 42.7 117.72 M1.22 162.18 C13.95 148.31, 26.71 134.11, 41.81 116.02 M7.34 161.29 C15.86 151.38, 25.09 142.2, 39.68 122.72 M7.66 161.81 C20.57 147.61, 33.88 132.48, 41.56 123.5 M13.58 160.37 C24.61 150.94, 31.76 138.24, 40.12 129.09 M12.69 161.18 C22.17 150.13, 33.09 140.04, 41.76 129.1 M19.36 163.09 C25.31 155.09, 33.97 146.49, 40.05 136.54 M17.97 162.29 C27.23 152.63, 34.76 141.71, 40.51 135.49 M23.08 160.31 C32.27 153.03, 39.2 146.83, 40.52 140.5 M22.68 162.01 C30.4 155.12, 37.01 146.27, 40.72 141.24 M27.83 162.81 C34.01 155.67, 37.54 152.58, 41.24 148.76 M29.92 161.82 C33.34 156.33, 36.87 152.03, 41.3 146.9 M34.83 162.05 C36.41 158.51, 39.08 155.76, 41.75 154.13 M34.48 161.86 C35.91 159.86, 36.85 158.1, 40.77 153.31 M0.02 160.02 C0.02 160.02, 0.02 160.02, 0.02 160.02 M0.02 160.02 C0.02 160.02, 0.02 160.02, 0.02 160.02 M7.18 160.95 C4.27 157.67, 1.93 156.57, -0.11 153.6 M6.62 160.47 C5.12 158.58, 3.62 157.27, -0.21 154.12 M11.13 159.97 C6.21 157.29, 2.34 152.57, 1.36 148.34 M12.11 160.06 C8.77 156.75, 5.12 152.77, -0.17 148.8 M16.81 159.31 C12.5 155.38, 9.3 153.51, 0.77 144.84 M18.63 160.04 C14.04 155.56, 8.57 151.64, 0.38 145.28 M22.37 158.8 C13.03 152.22, 4.56 145.25, -0.22 139.17 M23.58 160.12 C16.06 153.12, 6.53 145.66, 0.26 138.09 M30.58 159.84 C20.86 148.6, 8.99 141.66, -0.58 134.28 M30.85 160.89 C19.71 150.72, 10.69 143.21, 0.56 134.12 M37.18 159.85 C23.29 148.61, 13.65 137.86, 0.99 126.2 M36.87 161.08 C23.76 149.1, 11.32 137.84, 0.87 128.21 M39.09 159.34 C28.7 146.13, 15.56 135.66, 0.12 123.35 M40.55 158.05 C25.89 145.29, 10.03 131.25, 0.53 124.12 M40.24 154.26 C25.68 137.74, 7.67 123.93, 0.32 115.66 M40.8 153.6 C26.4 140.36, 12.07 127.68, -0.27 117.05 M39.03 149.64 C24.71 133.77, 10.23 121.58, -1.35 114.23 M41.41 147.05 C31 140.58, 22.23 132.98, 0.77 112.71 M41.85 144.73 C25.95 131.2, 8.45 115.21, -0.68 108.44 M42.26 143.77 C31 133.13, 21.78 126.09, -0.81 105.9 M41.25 138.07 C31.26 128.41, 23.34 121.7, -0.66 101.55 M40.97 137.75 C30.61 128.95, 19.16 117.69, 1 101.58 M41.6 131.08 C28.26 120.8, 13.83 110.32, -1.9 95.87 M42.11 132.6 C26.17 117.6, 10.17 105.45, -0.19 95.37 M40.64 125.23 C29.76 117.01, 20.83 108.22, -0.93 92.36 M40.4 126.13 C30.83 118.06, 21.27 109.89, 0.12 90.7 M43.16 121.62 C30.93 113.04, 18.41 101.13, -0.65 83.74 M41.89 121.43 C29.3 111.9, 18.35 102.24, 0.37 85.32 M42.6 114.14 C30.97 108.77, 19.45 98.57, -0.68 82.16 M41.12 115.42 C27.8 104.85, 14.48 91.73, 0.27 80.35 M42.72 109.08 C27.66 99.74, 17.25 90.03, 0.29 76.27 M40.36 111.9 C27.38 99.61, 13.65 87.55, -0.13 74.89 M39.14 106.26 C28.45 94.7, 15.8 85.65, 2.1 70.88 M40.74 106.15 C24.93 91.77, 12.22 80.52, 0.82 69.06 M41.06 98.66 C27.46 87.73, 14.14 78.86, 0.74 64.09 M41.5 99.93 C25.29 87.58, 10.03 73.33, -0.49 64.53 M40.8 93.51 C28.83 83.52, 16.73 72.81, 1.99 58.89 M41.11 94.12 C33.34 87.93, 25.41 80.72, 0.33 59.65 M39.51 87.97 C23.84 75.49, 10.13 63.08, -0.95 52.3 M40.52 89.72 C24.74 76.24, 9.79 61.94, -1.25 53.95 M40.7 82.21 C25.5 73.71, 12.88 58.91, -1.86 47 M40.29 84.44 C29.98 74.51, 18.3 65.14, 0.6 49.23 M39.96 79.06 C30.67 70.07, 16.34 58.38, 0.16 44.43 M41.84 79.75 C29.82 68.72, 17.79 59.57, -0.78 42.13 M43.27 73.8 C27.31 61.96, 11.27 49.47, -1.74 36.45 M41.31 74.11 C27.9 60.93, 11.31 49.39, 0.65 37.18 M40.88 70.45 C25.66 56.92, 12.21 42.66, 0.3 35.09 M41.08 68.77 C28.12 56.87, 15.82 46.95, -0.44 34.02 M41.23 62.17 C30.76 55.7, 20.63 46.35, -1.38 28.92 M41.16 63.49 C28.25 52.41, 15.62 42.12, 0.7 27.17 M41.28 57.04 C31.57 48.39, 23.55 41.94, 0.02 23.38 M41.12 57.83 C32.17 50.5, 22.58 41.7, 0.35 21.85 M40.15 53.65 C32.24 44.74, 21.43 35.47, 0.05 18.55 M41.31 52.15 C27.1 41.27, 14 27.59, 0.21 17.15 M40.75 46.23 C30.18 36.76, 20.28 31.59, 0.69 12.79 M42.02 48.24 C25.72 34.78, 9.93 19.99, 0.65 11.12 M43.4 40.31 C31.62 32.86, 19.43 20.96, -0.05 7.87 M40.69 42.32 C25.87 27.23, 9.05 14.45, -0.15 5.34 M39.43 37.81 C30.87 27.95, 21.28 18.89, 1.49 0.59 M41.08 37.63 C27.79 26.15, 15.23 15.5, 1 1.96 M40.88 32.69 C34.42 25.26, 23.75 17.61, 2.53 -2.13 M40.47 31.48 C28.6 20.78, 16.73 10.37, 1.76 -1.77 M42.03 24.04 C29.17 16.97, 22.97 8.48, 8.45 -2.27 M40.81 25.86 C32.73 18.75, 24.64 12.04, 8.44 -3.03 M41.11 19.74 C37.08 17.3, 28.43 9.96, 13.87 -1.48 M42 20.42 C31.7 12.23, 22.54 5.59, 14.61 -2.83 M41.83 13.58 C35.84 10.5, 29.46 4.83, 21.36 -1.6 M40.95 15.11 C37.06 12.37, 32.78 6.99, 21.41 -3.09 M43.12 8.87 C36.69 7.62, 33.52 6.21, 27.24 -2.83 M40.89 11.19 C35.84 6.82, 30.95 1.19, 26.91 -3.31 M40.77 4.11 C37.11 2.26, 35.34 -1.95, 31.88 -3.35 M40.66 4.24 C38.84 2.25, 35.85 0.31, 33 -1.95" stroke="#228be6" stroke-width="0.5" fill="none"></path><path d="M0.15 -1.73 C14.5 1.59, 28.01 0.47, 40.02 0.71 M-0.75 0.37 C15.05 0.1, 30.91 -0.89, 40.34 0.1 M40.75 -0.52 C37.43 38.73, 37.75 75.94, 40.31 158.74 M40.19 -0.62 C37.87 34.51, 39.23 67.03, 40.38 159.37 M40.67 160.87 C24.77 161.87, 6.37 161.11, 1.05 158.98 M39.04 160.98 C29.43 159.93, 19.47 160.24, -0.99 160.71 M0.47 160.88 C0.37 126.63, 3.01 94.88, -0.52 -1.24 M0.87 160.95 C1.22 114.52, 0.13 68.22, -0.96 -0.13" stroke="#000000" stroke-width="1" fill="none"></path></g><g stroke-linecap="round"><g transform="translate(11.50376775352504 49.76800687785271) rotate(0 -0.6013784224988967 139.9043072380125)"><path d="M0.09 -1.04 C0.24 45.85, 0.07 233.98, -0.06 280.85 M-1.33 1.03 C-1.25 47.64, -1.56 232.41, -1.04 279.17" stroke="#000000" stroke-width="1" fill="none"></path></g></g><g stroke-linecap="round"><g transform="translate(11.04017855748532 331.0324474575373) rotate(0 289.90430723801256 -0.34169303859584943)"><path d="M-1.04 -0.06 C95.85 -0.19, 483.98 -0.72, 580.85 -0.71 M0.61 -1.14 C97.47 -1.13, 483.86 0.04, 580.35 0.45" stroke="#000000" stroke-width="1" fill="none"></path></g></g><g transform="translate(10.411371591343027 10) rotate(0 45 16)"><text x="0" y="23" font-family="Virgil, Segoe UI Emoji" font-size="20px" fill="#000000" text-anchor="start" style="white-space: pre;" direction="ltr">Waterfall</text></g><g stroke-linecap="round" transform="translate(139.30026048023217 70) rotate(0 20 30)"><path d="M0 0 C0 0, 0 0, 0 0 M0 0 C0 0, 0 0, 0 0 M-0.26 6.64 C1.13 4.02, 3.05 2.42, 5.1 -0.02 M-0.25 6.41 C0.75 5.22, 2.19 3.47, 5.2 0.58 M1.28 13.6 C3.3 8.54, 7.58 5.02, 12.08 -0.29 M-0.24 12.81 C4.46 7.8, 6.9 2.79, 10.17 0.43 M-1.65 20.43 C5.61 12.58, 11.49 7.29, 16.93 1.35 M0.53 19.23 C5.1 13.46, 9.81 7.68, 15.66 -0.18 M-1.01 25.97 C4.22 15.78, 11.01 11.79, 23.2 -1.86 M0.02 23.79 C5.4 19.2, 11.56 13.27, 21.29 0.78 M-0.35 30.4 C6.39 23.49, 12.49 18.29, 27.61 1.16 M-0.45 29.92 C6.96 21.29, 16.61 12, 26.35 0.41 M0.03 38.76 C6.67 25.69, 18.73 15.3, 31.32 -0.51 M0.06 36.01 C7.06 29.13, 13.86 21.54, 31.14 0.38 M0.95 42.04 C8.95 33.47, 17.63 19.74, 38.65 0.45 M-0.72 41.66 C10.79 29.93, 22.76 17.05, 36.79 0.88 M-1.92 49.73 C14.72 32.69, 28.14 18.32, 40.62 -0.45 M-1.09 49.73 C17.44 29.54, 32.17 10.61, 40.37 1.95 M2.1 54.96 C14.3 40.41, 24.74 26.6, 42.04 8.08 M0.41 54.92 C11.21 43.4, 21.67 29.92, 41.49 6.51 M1.79 62.16 C9.47 48.49, 20.26 35.71, 42.9 12.17 M1.62 60.81 C9.87 48.51, 19.38 38.12, 41.37 12.91 M6.79 61.14 C19.28 46.4, 31.27 29.95, 40.89 21.77 M5.1 61.41 C13.15 49.74, 22.52 41.22, 40.76 19.29 M9.55 61.26 C16.57 52.65, 26.54 41.33, 41.59 25.98 M11.63 60.81 C21.51 48.63, 31.36 37.49, 41.83 26.36 M16 61.04 C23.13 53.99, 29.02 42.3, 40.14 33.68 M16.47 60.15 C22.64 53.02, 29.76 45.57, 41.34 31.48 M21.29 58.51 C28.2 52.01, 35.08 43.34, 41.48 38.64 M22.59 59.47 C27.83 51.22, 35.41 43.12, 42.46 37.22 M28.04 59.61 C30.07 57.24, 34.89 52.83, 42.7 43.92 M26.61 59.5 C31.84 55.44, 35.82 50.35, 40.67 43.16 M31.76 59.09 C34.4 57.31, 37 54.12, 41.21 50.74 M32.98 59.7 C35.66 56.91, 39.24 52.03, 41.39 50.4 M37.39 60.98 C38.67 58.9, 40.04 57.41, 41.25 56.05 M37.4 60.63 C38.48 59.36, 39.12 58.58, 41.64 55.93 M-0.27 59.76 C-0.27 59.76, -0.27 59.76, -0.27 59.76 M-0.27 59.76 C-0.27 59.76, -0.27 59.76, -0.27 59.76 M5.9 60.06 C4.95 58.59, 2.3 57.82, 0.61 54.42 M5.92 59.7 C5.07 58.72, 3.29 57.68, 0.21 54.65 M13.13 59.92 C10.04 58.01, 7.3 56.17, 0.4 50.12 M12.9 60.08 C8.01 55.71, 3.89 52.84, -0.43 48.46 M18.43 60.37 C12.18 57.8, 8.59 51.73, 0.87 45.07 M17.7 58.91 C13.42 56.16, 10.68 51.81, 0.43 44.68 M23.26 60.22 C18.77 51.9, 8.91 48.34, 0.33 36.93 M24.33 61.04 C19.01 56.44, 13.75 51.11, 0.25 39.13 M29.95 59.26 C18.76 47.77, 5.09 37.48, -0.39 32.45 M30.12 59.25 C21.93 51.78, 13.11 45.25, -0.32 34.48 M38.56 58.22 C25.7 52.6, 16.75 43.74, 0.55 27.9 M36.33 61 C25.94 50.01, 13.99 41.33, 0.75 27.87 M39.74 59.22 C28.06 49.38, 14.48 38.8, 0.02 21.57 M40.55 58.29 C31.94 51.63, 24.52 42.73, 0.33 22.6 M40.72 54.1 C31.83 46.36, 19.81 37.8, -0.16 18.15 M40.21 53.46 C31.19 44.41, 21.48 35.7, -0.44 17.87 M40.16 48.61 C28.84 37.32, 14.36 23.16, 1.06 10.44 M41.06 48.83 C29.6 36.82, 16.21 27.69, -0.24 12.04 M42.48 41.73 C28.22 32.12, 20.28 21.62, 1.7 7.06 M41.01 43.43 C29.18 32.56, 17.03 21.9, -0.32 7.68 M40.02 37.22 C30.83 30.33, 24.38 21.16, -1.75 1.49 M41.86 38 C33.33 30.13, 24.71 21.62, 0.6 2.11 M42.64 32.73 C25.34 21.01, 13.65 8.28, 0.94 -2.91 M40.49 31.52 C26.1 20.35, 13.89 7.45, 1.09 -2.2 M43.37 27.45 C33.56 19.57, 28.58 16.47, 7.98 -3.19 M42.04 26.35 C31.17 18.38, 22.63 9.72, 8.95 -2.42 M40.02 23.22 C30.98 14.37, 21.76 4.73, 14.47 -0.3 M41.1 20.68 C32.22 13.33, 24.67 6.5, 13.54 -1.44 M40.82 16.15 C36.04 11.54, 27.18 7.33, 18.35 -0.24 M40.9 15.71 C34.86 10.65, 30.85 6.9, 19.34 -1.62 M42.03 9.75 C34.56 7.68, 32.84 3.07, 26.17 -4.26 M40.5 10.14 C35.88 5.94, 32.06 2.08, 25.35 -1.47 M41.46 6.28 C38.27 1.77, 33.67 -0.26, 31.39 -1.54 M41.72 5.46 C38.39 2.72, 35.64 0.3, 32.27 -2.4" stroke="#fa5252" stroke-width="0.5" fill="none"></path><path d="M-1.19 0.3 C8.55 0.42, 18.57 -0.62, 40.98 -1.49 M0.88 -0.69 C13.83 -0.02, 26.39 -0.73, 40.03 0.38 M38.73 -0.99 C39.84 15.18, 37.72 30.96, 40.81 60.38 M40.76 -0.19 C40.02 13.68, 40.62 28.35, 40.45 60.34 M38.16 60.93 C27.32 59.32, 11.89 60.55, -1.96 58.08 M40.87 60.63 C23.08 60.84, 7.22 59.18, 0.94 60.24 M1.48 61.04 C-0.17 38.11, 0.03 17.8, 1.53 1.75 M-0.59 59.24 C-1.26 36.17, -0.51 12.28, -0.41 -0.62" stroke="#000000" stroke-width="1" fill="none"></path></g><g stroke-linecap="round" transform="translate(259.30026048023217 111.11111111111131) rotate(0 20 20)"><path d="M0 0 C0 0, 0 0, 0 0 M0 0 C0 0, 0 0, 0 0 M-0.02 6.17 C0.76 4.72, 2.54 2.99, 4.61 -0.29 M-0.25 6.32 C1.94 4.24, 3.58 1.86, 5.21 0.55 M1.69 11.44 C2.95 9.55, 5.76 8.54, 10.38 0.75 M0.9 12.8 C4.06 7.07, 7.22 2.51, 11.1 0.07 M1.87 19.09 C2.99 16.36, 6.68 12.26, 16.65 0.05 M0.67 19.19 C5.06 13.53, 9.46 6.88, 15.11 0.02 M2.16 22.54 C6.11 14.99, 16.3 8.5, 19.46 -1.19 M-0.03 24.03 C7.03 18.52, 12.73 10.97, 22.11 -0.77 M-0.08 30.73 C6.96 22.77, 15.72 15.72, 27.12 0.38 M-0.56 29.71 C10.17 19.77, 20.26 7.26, 26.36 0 M1.63 34.92 C6.61 28.96, 14.29 17.72, 31.48 -2.05 M-1.13 37.34 C6.14 29.85, 12.71 20.69, 32.37 -0.6 M0.97 40.88 C15.77 25.46, 25.46 13.13, 37.07 0.39 M0.59 40.8 C15.84 25.71, 29.92 9.02, 37.5 0.55 M7.25 42.8 C17.88 29.11, 31.18 13.5, 39.39 3.33 M7.25 42.27 C14.85 30.69, 23.72 20.46, 41.78 1.26 M12.48 42.69 C18.18 33.49, 24.56 26.25, 42.66 6.11 M12.44 41.15 C20.34 32.6, 26.31 23.95, 41.09 6.48 M19.03 39.95 C23.18 33.24, 28.31 28.07, 40.1 12.03 M17.67 41.22 C23.78 32.38, 31.78 23.66, 40.84 14.21 M23.28 41.5 C31.24 31.61, 37.5 24.02, 43.04 18.58 M23.55 40.31 C28.74 33.27, 36.95 24.62, 40.56 19.23 M28.78 39.43 C33.42 36.69, 35.32 30.49, 42 26.06 M28.33 41.55 C31.62 36.65, 36.06 32.12, 42.38 25.27 M33.65 40.74 C36.4 37.66, 36.34 35.44, 42.31 31.58 M33.11 40.66 C36.34 37.63, 39.37 34.68, 40.99 32.22 M37.92 41.05 C39.24 39.97, 40.01 39.19, 41.89 37.76 M38.16 41.04 C39.26 39.83, 40.4 38.78, 41.54 37.43 M-0.18 39.84 C-0.18 39.84, -0.18 39.84, -0.18 39.84 M-0.18 39.84 C-0.18 39.84, -0.18 39.84, -0.18 39.84 M5.59 39.79 C4.7 38.72, 2.94 37.69, 0.46 35.54 M5.97 39.95 C5.12 38.9, 3 37.79, 0.25 35.08 M13.23 39.06 C7.4 34.92, 3.14 31.06, 0.09 28.09 M12.31 39.68 C9.19 36.74, 7.4 35.75, -0.22 28.81 M16.6 38.67 C13.13 36.06, 5.73 27.56, 1.86 25.05 M18.03 39.36 C11.71 34.41, 5.25 29.54, -0.12 23.78 M24.75 41.2 C16.15 31.26, 9.41 27.26, -1.13 17.01 M23.84 40.84 C18.75 34.85, 13.61 30.94, -0.56 17.74 M29.87 40.2 C20.9 32.22, 12.22 24.52, 1.27 14.82 M30.06 39.94 C21.26 33.69, 14.58 25.83, -0.68 12.74 M37.17 38.13 C23.36 26.11, 6.45 16.26, 0.64 6.38 M35.72 39.37 C25.77 30.8, 13.78 20.94, 0.25 7.93 M40.9 39.94 C28.66 27.92, 20.82 20.14, -1.5 1.27 M41.72 38.08 C32.08 29.62, 21.67 21.95, 0.7 3.95 M40.69 33.93 C28.18 22.77, 17.44 13.97, 0.12 -1.59 M40.68 33.64 C31.46 25.95, 23.82 17.93, 2.15 -1.88 M38.99 25.97 C30.48 16.72, 18.35 8.97, 6.96 -1.07 M41.77 28.07 C29.65 18, 20.17 10.1, 6.93 -1.11 M41.41 21.94 C32.74 12.17, 23.33 5.82, 11.92 -3.3 M40.47 21.78 C34.98 16.69, 26.61 10.58, 12.94 -2.08 M42.29 18.62 C35.54 9.54, 27.66 3.47, 19.88 -2.31 M41.65 18.11 C33.95 11.54, 26.25 3.38, 19.6 -0.98 M41.39 13.35 C35.95 7.06, 27.53 2.69, 23.46 -1.62 M41.61 12.47 C36.76 8.54, 35.07 5.96, 25.06 -1.88 M40.85 6.15 C38.06 5.67, 34.49 2.76, 31.53 -1.33 M41.96 7.38 C38.99 5.3, 36.51 2.32, 31.94 -1.95 M40.99 1.21 C39.95 0.65, 38.48 -0.86, 38.04 -1.49 M41.14 1.54 C40.43 0.91, 39.5 0.43, 38.16 -0.98" stroke="#fd7e14" stroke-width="0.5" fill="none"></path><path d="M0.3 0.02 C12.51 1.74, 23.26 1.22, 38.51 0.75 M-0.69 0.34 C12.24 -0.95, 23.67 -0.32, 40.38 -0.26 M39.01 0.31 C38.79 7.02, 38.13 18.45, 40.38 38.77 M39.81 0.38 C39.74 10.59, 40.1 19.69, 40.34 40.43 M40.93 41.05 C25.64 38.98, 13.54 37.68, -1.92 41.96 M40.63 39.01 C28.2 39.42, 14.02 41.29, 0.24 40.44 M1.04 39.48 C-1.18 30, -0.85 22.14, 1.75 1.9 M-0.76 39.04 C-0.15 25.81, -0.33 11.64, -0.62 0.51" stroke="#000000" stroke-width="1" fill="none"></path></g><g stroke-linecap="round" transform="translate(199.30026048023217 110) rotate(0 20 10)"><path d="M0 0 C0 0, 0 0, 0 0 M0 0 C0 0, 0 0, 0 0 M-0.49 5.85 C1.1 4.62, 2.41 3.07, 4.34 1.11 M-0.34 6.5 C1.19 4.65, 2.42 3.77, 5.18 -0.03 M-0.47 12.76 C3.39 9.52, 8.15 4.04, 11.41 1.21 M0.9 12.07 C3.46 6.87, 7.2 3.82, 10.73 -0.75 M0.52 18.23 C6.22 13.16, 10.53 8.72, 15.35 0.67 M0.62 18.78 C6.72 11.14, 11.84 3.95, 15.31 0.98 M0.69 20.23 C9.53 13.86, 19.44 2.44, 20.14 -0.61 M2.18 22.65 C7.36 17.96, 10.49 13.31, 20.56 -0.39 M7.48 22.29 C14.46 16.13, 22.37 7.24, 26.34 2.06 M6.46 22.36 C15.18 14.35, 21.37 6.36, 25.95 -0.2 M10.91 20.71 C20.56 12.87, 24.92 6.64, 29.95 -1.96 M13.32 21.69 C20.12 14.18, 25.21 7.29, 31.39 0.52 M17.72 24.04 C24.71 12.2, 34.73 4.9, 37.01 2.16 M17.64 22.28 C23.08 17.3, 27.04 12.48, 37.17 0.71 M24.93 21.23 C30.35 16.19, 33.99 7.33, 43.17 0.47 M24.39 21.25 C27.99 15.22, 33.08 10.41, 41.09 0.56 M30.2 22 C33.54 16.17, 38.71 11.72, 40.7 5.98 M28.65 22.96 C32.22 17.34, 35.66 13.15, 41.07 6.65 M33.36 21.45 C35.4 18.78, 38.25 17.14, 40.58 13.55 M34.06 21.25 C36.3 18.84, 38.56 16.22, 41.78 13.93 M-0.09 19.92 C-0.09 19.92, -0.09 19.92, -0.09 19.92 M-0.09 19.92 C-0.09 19.92, -0.09 19.92, -0.09 19.92 M5.56 20.57 C4.68 17.71, 2.42 16.97, 0.51 14.93 M6.41 20.04 C5.07 19.1, 3.88 18.37, 0.2 14.8 M11.73 21.13 C6.55 14.54, 2.52 13.82, -0.49 10.04 M11.62 20.17 C7.94 17.19, 4.36 12.78, 0.36 9.07 M17.46 20.21 C10.83 13.95, 5.35 9.82, 1.3 5.4 M17.42 19.15 C12.31 14.04, 7.83 9.86, -0.03 3.81 M23.86 21.47 C19.64 17.17, 16.03 11.58, 0.91 -2.22 M24.98 20.38 C19.26 15.77, 13.71 10.28, 0.27 -1.34 M29.61 19.77 C21.21 10.88, 12.68 4.75, 8.71 -1.6 M30.01 20.78 C24.14 13.58, 18.35 9.19, 7.57 0.4 M35.98 20.37 C28.6 14.66, 21.47 8.06, 11.23 -2.68 M36.75 19.94 C29.22 15.09, 23.95 8.59, 12.13 -0.2 M39.62 19.75 C38.19 14.69, 30.77 11.98, 19.86 0.31 M40.31 18.07 C35.17 12.98, 30.18 8.57, 18.59 -0.27 M42.25 13.22 C34.1 9.95, 31.79 3.18, 23.11 -2.57 M41.89 13.09 C35.41 8.54, 30.79 3.58, 23.84 -0.85 M41.12 7.89 C37.69 5.33, 34.53 2.61, 31.87 -1.12 M40.95 7.34 C37.55 4.94, 33.24 0.77, 30.52 -0.14 M40.75 3.14 C39.38 1.22, 38.57 0.6, 37.08 -0.42 M41.06 2.83 C40.61 1.9, 39.78 1.58, 37.47 -0.52" stroke="#40c057" stroke-width="0.5" fill="none"></path><path d="M0.02 0.71 C16.34 -0.4, 30.64 -1.55, 40.75 0.07 M0.34 0.1 C12.57 -0.34, 26.37 0.65, 39.74 -0.79 M40.31 -1.26 C38.08 4.35, 40.68 12.92, 38.77 18.81 M40.38 -0.63 C41.13 7.54, 40.6 15.94, 40.43 20.33 M41.05 18.98 C23.98 20.4, 7.3 18.27, 1.96 20.26 M39.01 20.71 C25.76 19.3, 14.34 20.49, 0.44 19.42 M-0.52 18.76 C-0.46 13.39, 1.38 10.33, 1.9 0.99 M-0.96 19.87 C-0.1 13.62, -0.29 7.26, 0.51 -0.99" stroke="#000000" stroke-width="1" fill="none"></path></g><g stroke-linecap="round"><g transform="translate(119.30026048023217 70) rotate(0 9.732349190148511 0.4127803785447668)"><path d="M0.01 0.42 C3.62 0.36, 17.48 0.02, 20.9 -0.2 M-1.44 -0.4 C2.15 -0.29, 16.84 1.17, 20.43 1.23" stroke="#000000" stroke-width="1" fill="none"></path></g></g><g stroke-linecap="round"><g transform="translate(179.93734845157712 130.69877429990493) rotate(0 9.490990267447216 -0.1519234600789332)"><path d="M0.42 0.9 C3.69 1, 16.68 0.66, 19.8 0.59 M-0.81 0.33 C2.26 0.07, 15.02 -0.89, 18.74 -1.22" stroke="#000000" stroke-width="1" fill="none"></path></g></g><g stroke-linecap="round"><g transform="translate(239.99606783624665 111.79959556489393) rotate(0 10.2544325515953 -0.5931794195439579)"><path d="M0.9 -0.2 C4.33 -0.42, 17.33 -0.94, 20.59 -0.9 M-0.08 -1.36 C3.24 -1.49, 16.62 -0.28, 19.95 0.17" stroke="#000000" stroke-width="1" fill="none"></path></g></g><g stroke-linecap="round"><g transform="translate(300.4085596398635 152.6275352519483) rotate(0 9.787947561843339 -0.4249629840021498)"><path d="M-0.2 0.59 C2.91 0.51, 15.73 0.49, 19.1 0.45 M-1.77 -0.15 C1.68 -0.67, 17.84 -1.16, 21.35 -1.44" stroke="#000000" stroke-width="1" fill="none"></path></g></g><g stroke-linecap="round" transform="translate(428.63359381356565 92.33333333333348) rotate(0 12.626262626262815 12.626262626262815)"><path d="M0 0 C0 0, 0 0, 0 0 M0 0 C0 0, 0 0, 0 0 M-0.64 5.75 C2.13 4, 3.04 2.67, 4.82 0.57 M-0.04 6.59 C1.26 4.3, 3.8 2.48, 4.84 0.54 M-0.12 12.82 C4.43 9.2, 5.61 6.2, 12.16 0.02 M0.6 12.14 C2.07 9.12, 4.72 7.05, 10.89 -0.12 M0.9 18.17 C6.19 13.09, 13.16 6.15, 17.12 1 M-0.64 18.13 C6.79 12.26, 11.71 5.08, 14.85 -0.47 M-1.53 22.96 C5.49 15.42, 11.42 9.77, 21.15 1.59 M1.11 23.38 C8.11 15.08, 16.61 4.81, 21.39 -0.01 M3.5 27.55 C11.61 20.04, 16.4 8.99, 24.72 0.65 M2.75 27.17 C11.3 17.2, 21.12 7.25, 25.27 -0.25 M7.21 25.88 C12.72 20.97, 22 10.49, 26.9 6.49 M8.1 27.33 C15.15 21.05, 21.81 11.91, 25.92 7.64 M13.45 27.55 C18.49 22.32, 18.38 18, 25.32 13.35 M13.85 27.71 C18.01 22.5, 21.08 17.8, 26.41 12.84 M17.15 28.96 C20.52 24.4, 22.73 22.24, 27.19 18.13 M18.59 27.72 C19.53 26.35, 22.28 24.02, 26.63 18.7 M0.33 25.54 C0.33 25.54, 0.33 25.54, 0.33 25.54 M0.33 25.54 C0.33 25.54, 0.33 25.54, 0.33 25.54 M5.47 24.59 C4.49 23.87, 3.52 22.84, -0.16 19.21 M5.77 25.46 C4.55 23.53, 2.59 22.1, 0.04 20.15 M13.94 24.42 C10.57 24.21, 5.32 21.4, -0.71 13.68 M11.95 24.94 C8.75 22.15, 3.7 18.91, -0.45 15.3 M18.54 25.61 C12 17.89, 6.53 15.6, 0.4 8.57 M18.92 24.83 C12.01 20.69, 6.52 15.46, -0.24 10.11 M26.23 24.81 C20.01 20.67, 13.89 14.74, -0.57 5.23 M24.04 25.88 C17.17 19.99, 10.36 12.73, -0.19 4.35 M28.93 23.98 C22.28 17.33, 15.87 10, -1.24 -2.5 M27.51 22.65 C20.18 15.82, 13.9 9.93, 0.18 -0.13 M27.42 17.58 C19.64 10.42, 14.47 4.8, 7.49 -0.31 M26.66 16.94 C21.27 13.27, 15.9 6.92, 6.63 -0.52 M28.45 14 C22.34 7.84, 20.49 3.57, 11.9 0.89 M27.93 12.85 C24.05 8.35, 18.34 5.16, 12.25 -0.75 M27.57 5.86 C24.21 4.55, 22.62 3.57, 19.01 -0.84 M27.35 6.36 C25.92 4.69, 23.7 3.22, 18.7 -0.23" stroke="#228be6" stroke-width="0.5" fill="none"></path><path d="M-1.49 0.75 C9.55 0.46, 20.71 -1.5, 25.93 0.2 M0.38 -0.26 C5.28 0.13, 11.51 -0.5, 25.41 -0.63 M25.63 -1.23 C23.82 7.11, 26.53 10.22, 26 24 M25.59 0.43 C25.52 10.88, 24.26 20.53, 25.78 24.74 M23.34 27.21 C18.75 25.66, 13.49 26.27, -1.99 26.67 M25.49 25.69 C19.46 25.34, 15.55 26.01, -0.26 24.63 M1.75 27.15 C1.1 18.13, -1.07 9.37, -1.92 -0.27 M-0.62 25.76 C-0.9 17.49, 0.53 11, -0.23 -0.1" stroke="#000000" stroke-width="1" fill="none"></path></g><g stroke-linecap="round" transform="translate(428.63359381356565 130.21212121212375) rotate(0 12.626262626262815 12.626262626262815)"><path d="M0 0 C0 0, 0 0, 0 0 M0 0 C0 0, 0 0, 0 0 M-0.91 7.14 C0.6 4.86, 2.52 3.08, 5.19 0.8 M-0.07 6.01 C0.93 5.33, 2.4 3.57, 5.17 0.37 M0.91 13.28 C4.99 6.62, 9.7 4.21, 10.68 -0.96 M0.24 11.32 C2.28 8.91, 5.28 7.32, 10.55 0.61 M-0.4 18.78 C6.26 14.09, 11.06 8.68, 16.29 2.22 M-0.43 19.09 C5.17 12.9, 9.46 7.79, 14.82 0.12 M-0.85 23.54 C5.6 15.42, 13.99 7.43, 22.92 1.89 M-0.44 23.76 C8.83 14.57, 16.13 5.72, 21.32 0.09 M2.72 29.23 C13.04 15.78, 19.86 4.5, 26.61 2.07 M2.33 26.97 C10.2 19.2, 18.1 9.71, 25.71 0.99 M5.67 25.97 C12.76 23.69, 14.28 19.18, 25.79 8.17 M7.12 28.44 C13.92 22.21, 17.84 15.82, 26.94 6.36 M13.38 29.23 C14.93 22.37, 17.42 20.19, 25.99 14.03 M13.54 27.85 C17.36 21.87, 21.69 18.79, 25.48 13.67 M19.42 27.25 C20.81 23.62, 24.59 22.79, 25.52 17.75 M18.18 27.3 C20.76 26.03, 22.37 23.74, 26.09 18.8 M0.33 25.54 C0.33 25.54, 0.33 25.54, 0.33 25.54 M0.33 25.54 C0.33 25.54, 0.33 25.54, 0.33 25.54 M5.42 25.25 C4.73 24.74, 3.83 22.77, -0.75 19.9 M6.29 25.52 C4.39 24, 2.99 22.54, 0.19 19.71 M11.39 26.7 C10.05 21.33, 6.1 17.89, -0.94 15.35 M11.91 25.79 C8.48 21.03, 4.53 17.37, 0.68 15.22 M18.61 25 C12.54 22.52, 11.91 19.16, -0.8 9.53 M17.83 24.68 C13.12 20.35, 7.43 15.67, 0.74 8.56 M23.95 26.21 C19.95 21.59, 13.93 16.11, 1.21 3.88 M25.02 24.99 C15.35 16.52, 4.38 8.06, 0.34 3.72 M28.86 24 C20.34 17.71, 11.09 7.84, -1.18 -1.31 M27.53 22.41 C21.2 18.66, 16.25 12.92, 1.2 -0.72 M27.71 15.72 C18.15 10.2, 10.41 4.82, 7.15 -1.13 M27.07 16.6 C21.79 10.79, 13.58 5.29, 6.94 -0.59 M29.47 11.1 C23.27 10.35, 18.98 5.03, 14.4 -0.71 M28.33 13.1 C24.41 9.17, 21.94 6.15, 12.76 -1.31 M26.59 5.61 C24.4 3.74, 22.5 1.82, 18.8 -1.59 M27.08 6.97 C23.81 3.85, 20.82 1.02, 19.41 -0.08" stroke="#fa5252" stroke-width="0.5" fill="none"></path><path d="M0.75 0.07 C7.73 1.94, 12.91 0.87, 25.45 -1.19 M-0.26 -0.79 C6.16 -0.73, 11.55 0.06, 24.62 -0.9 M24.02 -1.19 C27.16 6.67, 24.97 11.06, 24 27.2 M25.69 0.33 C26.21 6, 25.83 14.36, 24.74 24.93 M27.21 25.51 C18.06 26.75, 10.83 23.02, 1.42 23.39 M25.69 24.68 C19.94 26.05, 15.43 25.05, -0.62 25.1 M1.9 26.24 C-0.13 17.64, -1.71 10.46, -0.27 -0.43 M0.51 24.27 C-0.63 18.93, -0.08 11.49, -0.1 -0.25" stroke="#000000" stroke-width="1" fill="none"></path></g><g stroke-linecap="round" transform="translate(428.63359381356565 166.97979797980133) rotate(0 12.626262626262815 12.626262626262815)"><path d="M0 0 C0 0, 0 0, 0 0 M0 0 C0 0, 0 0, 0 0 M0.48 5.88 C1.45 4.57, 2.91 2.85, 5.42 -0.28 M-0.65 6.46 C1.85 4.63, 3.26 2.29, 4.99 0.71 M1.37 12.93 C3.51 8.81, 9.88 2.61, 9.7 -1.58 M-0.58 11.98 C2 9.9, 5.42 6.09, 11.27 0.03 M0.22 20.09 C6.86 13.43, 12.8 5.89, 17.51 -0.18 M0.53 19.41 C4.11 13.92, 8.77 6.67, 15.41 0.79 M-0.27 22.38 C8.33 14.02, 17.04 6.69, 23.22 1.51 M-0.06 24.69 C6.24 16.88, 12.9 9.66, 21.42 0.86 M4.39 28.79 C10.29 16.32, 18.37 7.81, 28.02 0.45 M2.14 27.79 C10.07 20.05, 16.27 10.14, 26.95 -0.44 M5.76 28.74 C13.28 20.52, 18.56 16.32, 27.47 6.3 M8.24 28.81 C12.06 22.91, 15.72 19.35, 25.66 6.07 M15.07 26.26 C16.46 20.2, 22.53 16.54, 26.66 13.51 M13.69 27.5 C15.94 23.6, 21.11 18.79, 26.3 13.46 M17.71 27.65 C19.3 26.23, 23.67 22.2, 25.14 18.12 M17.76 28.26 C20.44 25.96, 22.11 23.85, 26.19 18.67 M0.33 25.54 C0.33 25.54, 0.33 25.54, 0.33 25.54 M0.33 25.54 C0.33 25.54, 0.33 25.54, 0.33 25.54 M6.07 25.23 C4.48 23.6, 1.34 20.45, -0.06 19.54 M6.34 25.11 C4.4 23.72, 2.45 22.27, -0.25 19.96 M13.66 26.89 C7.87 23.63, 4.24 18, 0.74 15.61 M12.75 25.64 C8.49 22.96, 5.21 20.1, 0.61 14.13 M18 23.23 C13.1 21.52, 7.4 14.74, 0.17 9.21 M17.68 25.56 C11.66 19.95, 5.59 15.26, -0.81 8.3 M25.35 25.62 C18.64 19.29, 11.49 15.83, -0.14 6.22 M24.13 25.84 C16.61 18.03, 8.93 12.36, -0.3 4.11 M28.88 23.13 C21.01 14.78, 9.84 7.39, 0.02 -2.7 M27.29 21.97 C17.95 13.29, 6.47 5.21, 0.61 -0.06 M25.85 15.58 C19.28 8.78, 12.87 4.4, 6.34 0.01 M26.73 18.12 C22.19 12.31, 17.68 8.9, 6.87 -0.96 M26.58 11.57 C24.32 7.11, 17.59 6.01, 12.79 -2.46 M28.57 12.3 C22.24 8.68, 16.87 3.37, 12.19 -0.53 M26.33 6.41 C24.65 5.31, 22.94 2.53, 18.04 0.12 M27.69 6.14 C24.25 3.58, 21.11 1.83, 19.56 -0.47" stroke="#40c057" stroke-width="0.5" fill="none"></path><path d="M0.07 0.58 C10.57 -1.48, 18.31 0.1, 24.06 -1.23 M-0.79 0.13 C7.03 -0.43, 15.48 -0.57, 24.35 -0.96 M24.06 1.8 C26.82 8.21, 26.05 15.95, 27.2 24.73 M25.59 0.84 C24.42 9.18, 25.86 16.91, 24.93 25.36 M25.51 25.9 C21.89 26.76, 13.05 26.92, -1.87 23.35 M24.68 25.11 C16.04 25.88, 5.08 24.74, -0.16 24.8 M0.99 25.31 C-1.4 14.23, -2.14 5.98, -0.43 -0.64 M-0.99 24.52 C0.61 18.53, -0.07 12.08, -0.25 -0.35" stroke="#000000" stroke-width="1" fill="none"></path></g><g transform="translate(463.3002604802317 88.5555555555552) rotate(0 26 16)"><text x="0" y="23" font-family="Virgil, Segoe UI Emoji" font-size="20px" fill="#000000" text-anchor="start" style="white-space: pre;" direction="ltr">item 1</text></g><g transform="translate(459.9669271468987 128.5555555555552) rotate(0 32 16)"><text x="0" y="23" font-family="Virgil, Segoe UI Emoji" font-size="20px" fill="#000000" text-anchor="start" style="white-space: pre;" direction="ltr">item 2</text></g><g transform="translate(459.9669271468978 164.1111111111104) rotate(0 31.5 16)"><text x="0" y="23" font-family="Virgil, Segoe UI Emoji" font-size="20px" fill="#000000" text-anchor="start" style="white-space: pre;" direction="ltr">item 3</text></g><g stroke-linecap="round" transform="translate(430.9113715913421 206.87878787879072) rotate(0 12.626262626262815 12.626262626262815)"><path d="M0 0 C0 0, 0 0, 0 0 M0 0 C0 0, 0 0, 0 0 M-0.42 6.6 C1.41 4.33, 2.63 3.99, 5.37 -0.42 M-0.41 6.58 C1.36 4.79, 3.38 2.46, 5.18 0.67 M1.66 12.1 C3 6.1, 6.74 4.29, 10.84 -1.47 M0.39 11.96 C3.94 8.47, 6.89 5.29, 10.52 0.1 M1.38 19.11 C7.67 10.88, 11.88 3.45, 15 1.63 M-0.9 17.64 C6.04 11.55, 13.47 2.99, 15.06 0.06 M0.16 25.74 C6.8 20.54, 9.4 15.46, 19.86 -0.71 M0.39 24.14 C8.06 16.29, 16.16 7.08, 21.31 0.81 M1.1 27.82 C13.19 17.8, 20.27 7.92, 25.66 -0.69 M1.65 26.92 C11.15 17.47, 18.01 8.96, 25.27 -0.64 M8.53 27.63 C15.38 20.28, 18.76 14.32, 24.99 7.93 M7.55 28.77 C14.54 18.8, 23.09 11.08, 26.05 7.64 M12.85 27.69 C17.3 24.53, 19.17 21.87, 26.29 13.94 M13.94 27.18 C17.8 23.34, 20.78 17.69, 26.66 12.66 M19.32 27.19 C19.63 24.5, 21.87 23.18, 25.98 17.76 M18.76 27.75 C21.21 24.28, 24.25 21.23, 25.85 18.42 M0.33 25.54 C0.33 25.54, 0.33 25.54, 0.33 25.54 M0.33 25.54 C0.33 25.54, 0.33 25.54, 0.33 25.54 M5.87 24.46 C4.04 23.19, 2.18 21.51, 0.57 20.64 M6.08 25.4 C3.99 23.69, 2.38 22.48, -0.31 20.22 M11.36 24.17 C8.13 22.08, 2.42 16.42, -0.63 15.68 M11.62 25.79 C8.8 21.24, 4.56 18.77, 0.53 14.9 M18.51 24.31 C14.41 21.75, 11.02 20.29, -0.47 8.61 M17.87 25.85 C10.89 18.49, 4.62 14.77, -0.33 9.73 M23.58 26.23 C16.3 20.46, 9.29 11.11, 1.47 3.72 M23.96 25.35 C15.31 17.42, 7.19 10.68, 0.79 4.82 M25.93 21.11 C18.59 13.39, 12.44 7.49, 0.1 -1.7 M27.35 23.49 C22.05 18.57, 17.14 13.07, 0.78 -1.48 M27.87 17.4 C22.37 13.7, 17.3 7.95, 6.37 -1.77 M27 17.19 C19.5 9.77, 11.89 3.8, 7.88 -1.04 M26.99 14.02 C23.81 7.09, 20.61 5.59, 13.81 0.79 M27.35 12.37 C22.75 8.75, 18.27 4.65, 11.96 -1.77 M27.31 6.38 C24.06 5.37, 23.36 2.65, 18.5 0.09 M27 6.99 C26.13 5.16, 23.61 3.99, 19.28 -0.34" stroke="#fd7e14" stroke-width="0.5" fill="none"></path><path d="M0.68 0.2 C7.12 -1.06, 16.7 0.93, 24.73 -1.59 M0.16 -0.63 C7.02 -0.83, 16.24 0.31, 24.64 -0.6 M26 -1.25 C27.39 9.33, 26.34 20.38, 26.12 25.92 M25.78 -0.51 C24.69 9.81, 24.04 18.45, 26.23 25.38 M23.27 26.67 C14.99 23.51, 10.34 25.88, 0.88 24.1 M24.99 24.63 C17.89 24.93, 11.6 26.26, 0.95 25.75 M-1.92 24.99 C-0.28 16.96, -0.67 8.7, 1.02 -1.97 M-0.23 25.16 C-0.37 19.18, 0.14 13.89, 0.72 -0.32" stroke="#000000" stroke-width="1" fill="none"></path></g><g transform="translate(462.24470492467424 205.22222222222217) rotate(0 30 16)"><text x="0" y="23" font-family="Virgil, Segoe UI Emoji" font-size="20px" fill="#000000" text-anchor="start" style="white-space: pre;" direction="ltr">item 4</text></g></svg>